<svg width="95" height="94" fill="none" xmlns="http://www.w3.org/2000/svg"><path d="M47.31 90.302c24.007 0 43.47-19.351 43.47-43.221 0-23.87-19.463-43.222-43.47-43.222-24.008 0-43.47 19.351-43.47 43.222 0 23.87 19.462 43.22 43.47 43.22z" fill="url(#paint0_linear_82_315)"/><path d="M50.985 31.431a24.494 24.494 0 00-.522-1.609 11.609 11.609 0 00-.306-.776 3.712 3.712 0 00-.382-.691.624.624 0 00-.21-.199c-.026-.011-.03-.003-.026 0v.002l-.017.003c-.007.002-.012.004-.01.005 0 .002.005.004.001.005a1.01 1.01 0 00-.14.217 3.765 3.765 0 00-.152.35c-.186.498-.327 1.039-.463 1.578a63.524 63.524 0 00-.726 3.282c-.221 1.103-.446 2.205-.652 3.313l-.31 1.663-.32 1.663c-.108.556-.215 1.113-.333 1.674a24.84 24.84 0 01-.405 1.708c-.083.292-.18.588-.32.902a3.54 3.54 0 01-.258.49 2.212 2.212 0 01-.458.53 1.65 1.65 0 01-.826.362 1.751 1.751 0 01-.847-.1c-.473-.187-.759-.449-1.01-.692-.489-.498-.825-1.005-1.148-1.512a24.87 24.87 0 01-.87-1.527 39.693 39.693 0 01-2.655-6.393c-.674-2.206-1.206-4.45-1.49-6.737a36.404 36.404 0 01-.18-1.72c-.022-.288-.04-.576-.054-.871a42.974 42.974 0 01.118-4.293c.2-2.276.57-4.533 1.177-6.721l.1.018a45.17 45.17 0 00-.745 6.722c-.064 2.253-.015 4.517.367 6.743.36 2.227.903 4.422 1.61 6.565a39.724 39.724 0 002.646 6.219c.264.499.532.994.828 1.473.295.477.61.947.996 1.343.195.195.41.373.654.469.242.096.515.07.711-.1.2-.162.335-.41.45-.66a6.72 6.72 0 00.287-.784c.319-1.076.542-2.186.783-3.288.235-1.105.472-2.21.717-3.314.245-1.103.498-2.205.767-3.303a60.44 60.44 0 01.88-3.277c.167-.54.34-1.081.57-1.604.06-.129.12-.26.196-.384.076-.123.156-.25.293-.341a.432.432 0 01.464.007c.133.085.223.208.303.329.153.247.263.512.36.779.099.267.182.54.26.811.153.546.278 1.099.393 1.651l-.096.02zM35.39 14.805c.773-.66 1.666-1.18 2.615-1.594.478-.2.972-.368 1.475-.51.505-.143 1.032-.23 1.56-.295.263-.03.528-.052.793-.063.133-.009.265-.009.397-.009s.263-.001.395.004c.527.006 1.047.06 1.564.122.259.032.516.072.769.118.255.042.507.094.76.144a26.387 26.387 0 017.142 2.672c1.783.97 3.45 2.143 4.91 3.539l-.056.084a42.151 42.151 0 00-2.547-1.54 38.146 38.146 0 00-2.649-1.359 35.879 35.879 0 00-5.579-2.057 26.404 26.404 0 00-2.9-.657c-.978-.16-1.97-.242-2.956-.196-.986.045-1.966.236-2.912.524-.95.282-1.863.676-2.728 1.16l-.052-.087z" fill="#fff"/><path d="M53.029 19.165c-.242.193-.519.382-.875.4a.917.917 0 01-.512-.147 1.487 1.487 0 01-.38-.36c-.211-.273-.343-.585-.444-.903a4.574 4.574 0 01-.191-.977 2.706 2.706 0 01.015-.497c.019-.165.037-.331.068-.494a4.57 4.57 0 01.282-.964c.133-.316.297-.6.481-.873.186-.274.392-.535.639-.773.248-.235.535-.462.924-.578.096-.028.2-.045.305-.052a1.39 1.39 0 01.87.265c.323.227.529.528.696.825.164.299.284.608.385.917.2.62.321 1.246.414 1.873.091.626.152 1.254.193 1.88.08 1.254.082 2.511.052 3.754a44.322 44.322 0 01-.208 3.749 27.043 27.043 0 01-.633 3.718c-.404 1.2-.904 2.365-1.554 3.436a22 22 0 00.897-3.597c.297-1.187.49-2.403.618-3.626.127-1.224.18-2.455.204-3.693.032-1.24.03-2.469-.05-3.697a22.727 22.727 0 00-.186-1.827 11.238 11.238 0 00-.389-1.763 4.606 4.606 0 00-.334-.801c-.135-.244-.3-.466-.492-.598a.79.79 0 00-.298-.133.58.58 0 00-.303.015c-.214.06-.44.222-.64.415a4.684 4.684 0 00-.968 1.422 4.228 4.228 0 00-.307 1.687c-.038.574.017 1.184.267 1.692.125.25.317.467.59.511.278.047.589-.064.864-.206zm-22.914 32.47l.607.153c-.127.495-.357.873-.686 1.134-.331.26-.735.39-1.213.39-.495 0-.897-.101-1.206-.301-.31-.2-.546-.49-.708-.87a3.08 3.08 0 01-.243-1.223c0-.475.091-.888.274-1.243.182-.352.442-.621.778-.806a2.29 2.29 0 011.112-.275c.46 0 .844.116 1.157.347.312.232.53.56.654.98l-.598.139c-.107-.333-.26-.573-.463-.724-.203-.151-.456-.227-.764-.227-.353 0-.647.084-.883.252a1.321 1.321 0 00-.498.677 2.746 2.746 0 00-.144.875c0 .388.057.726.17 1.016.114.29.291.506.531.648.24.143.5.215.779.215.34 0 .628-.097.863-.292.238-.191.398-.48.481-.865zm.98-1.703h2.699v.464h-1.07v2.84h-.558v-2.84h-1.07v-.464h-.001zm2.955 1.651c0-.61.171-1.064.514-1.358a1.552 1.552 0 011.046-.368c.456 0 .83.15 1.12.447.29.297.434.708.434 1.232 0 .425-.064.76-.193 1.003a1.355 1.355 0 01-.559.568 1.639 1.639 0 01-.802.201c-.465 0-.841-.148-1.129-.445-.288-.295-.43-.722-.43-1.28zm.579 0c0 .424.092.74.278.951.186.21.42.316.701.316a.89.89 0 00.698-.318c.186-.211.279-.534.279-.967 0-.408-.093-.717-.28-.929a.894.894 0 00-.697-.316.895.895 0 00-.7.315c-.187.21-.28.525-.28.948zm3.209-1.651h.877l.873 2.644.97-2.644h.81v3.304h-.562v-2.659l-.982 2.659h-.503l-.93-2.787v2.787h-.55v-3.304h-.003zm6.557 2.896c-.208.176-.409.3-.601.372-.193.073-.4.11-.622.11-.365 0-.645-.09-.841-.266a.876.876 0 01-.294-.68.9.9 0 01.112-.443.911.911 0 01.29-.323c.12-.08.255-.142.405-.183.11-.028.277-.057.5-.084.455-.053.79-.117 1.004-.193l.003-.146c0-.228-.052-.388-.16-.482-.144-.126-.358-.19-.642-.19-.265 0-.461.046-.586.138-.127.092-.22.255-.28.49l-.551-.074c.05-.235.132-.423.246-.567.115-.145.28-.256.497-.333.216-.077.468-.116.753-.116.284 0 .514.034.691.1a.929.929 0 01.392.25c.083.1.142.227.176.381.018.096.028.267.028.516v.745c0 .52.012.85.036.988.023.137.07.27.142.396h-.588a1.249 1.249 0 01-.11-.406zm-.047-1.252c-.204.083-.512.153-.92.212-.23.034-.394.07-.49.113a.475.475 0 00-.299.447c0 .149.057.273.17.372.113.1.28.15.498.15.216 0 .41-.047.58-.141a.87.87 0 00.371-.388c.061-.126.091-.313.091-.56v-.204h-.001zm.998-1.644h2.699v.464h-1.07v2.84h-.558v-2.84h-1.07v-.464h-.001zm2.956 1.651c0-.61.17-1.064.513-1.358a1.552 1.552 0 011.046-.368c.456 0 .83.15 1.12.447.29.297.434.708.434 1.232 0 .425-.064.76-.193 1.003a1.355 1.355 0 01-.559.568 1.64 1.64 0 01-.802.201c-.465 0-.841-.148-1.128-.445-.288-.297-.431-.722-.431-1.28zm.577 0c0 .424.093.74.28.951a.891.891 0 00.7.316.89.89 0 00.698-.318c.186-.211.279-.534.279-.967 0-.408-.093-.717-.28-.929a.894.894 0 00-.697-.316.895.895 0 00-.7.315c-.187.21-.28.525-.28.948zm3.331-1.651h2.614v3.304h-.56v-2.84h-1.492v1.645c0 .384-.012.637-.038.76a.56.56 0 01-.206.32c-.111.093-.275.136-.488.136-.131 0-.282-.008-.454-.025v-.467h.247a.632.632 0 00.25-.035.181.181 0 00.1-.114c.016-.052.025-.22.025-.507v-2.177h.001zm3.323 1.651c0-.61.17-1.064.514-1.358.285-.245.633-.368 1.045-.368.456 0 .83.15 1.12.447.29.297.434.708.434 1.232 0 .425-.064.76-.192 1.003a1.355 1.355 0 01-.56.568 1.639 1.639 0 01-.802.201c-.464 0-.84-.148-1.128-.445-.287-.297-.43-.722-.43-1.28zm.58 0c0 .424.093.74.278.951a.891.891 0 00.701.316.89.89 0 00.698-.318c.186-.211.279-.534.279-.967 0-.408-.093-.717-.28-.929a.894.894 0 00-.697-.316.895.895 0 00-.7.315c-.187.21-.28.525-.28.948zm3.196-1.651h1.91v.464h-1.348v2.84h-.562v-3.304zm2.334 0h.562v2.52l1.56-2.52h.607v3.304h-.562v-2.504l-1.561 2.504h-.606v-3.304zm6.194 0v3.304h-.559v-1.288h-.326c-.198 0-.346.025-.442.075-.097.05-.239.213-.424.49l-.492.723h-.697l.606-.89c.186-.272.37-.425.554-.46-.321-.044-.56-.159-.715-.347a.977.977 0 01-.233-.643c0-.285.102-.519.306-.697.203-.178.498-.267.883-.267h1.54zm-.56.462h-.801c-.336 0-.552.052-.649.156a.52.52 0 00-.145.365c0 .196.07.34.214.433.142.092.396.138.759.138h.623v-1.092h-.002zm-51.308 10.88c0-2.558 1.77-4.014 3.706-4.014 1.015 0 1.84.47 2.385 1.01l-1.063 1.29c-.378-.329-.755-.562-1.275-.562-.897 0-1.676.821-1.676 2.207 0 1.432.66 2.23 1.652 2.23.59 0 1.063-.306 1.394-.657l1.062 1.268c-.648.751-1.533 1.127-2.527 1.127-1.959-.003-3.658-1.294-3.658-3.9zm7.248-3.874h4.957v1.689h-2.927v1.197h2.503v1.69h-2.503v1.362h3.046v1.69h-5.076v-7.629zm6.563 0h2.171l1.158 3.122c.142.423.26.891.402 1.338h.047c.142-.447.26-.915.402-1.338l1.11-3.123h2.172v7.63H35.4v-2.254c0-.774.165-1.96.26-2.722h-.047l-.637 1.83-.944 2.525h-1.087l-.944-2.524-.613-1.831h-.047c.094.763.26 1.948.26 2.722v2.254h-1.823V57.4zm9.16 0h4.957v1.689H40.97v1.197h2.503v1.69H40.97v1.362h3.045v1.69H38.94v-7.629zm6.562 0h2.007v2.206c0 .939-.166 2.09-.26 2.91h.047l.731-1.712 1.7-3.405h2.148v7.63h-2.007v-2.207c0-.939.166-2.042.26-2.91h-.047l-.731 1.701-1.7 3.416h-2.148v-7.63zm1.015-2.276h1.7c.023.434.189.656.52.656.33 0 .495-.223.518-.657h1.7c-.048.986-.637 1.643-2.22 1.643-1.58 0-2.17-.657-2.218-1.642zm7.058 2.276h2.03v2.84h2.291V57.4h2.03v7.63h-2.03V62h-2.29v3.028h-2.03V57.4zm8.053 0h2.03v2.651h.59c1.746 0 3.069.68 3.069 2.419 0 1.924-1.417 2.558-3.116 2.558h-2.573v-7.629zm2.478 6.032c.755 0 1.228-.259 1.228-.939 0-.562-.402-.845-1.228-.845h-.45v1.784h.45zm4.108-6.033h2.03v7.63h-2.03V57.4zm3.729.001h2.007v2.206c0 .939-.166 2.09-.26 2.91h.047l.732-1.712 1.699-3.405h2.148v7.63H76.31v-2.207c0-.939.165-2.042.26-2.91h-.047l-.732 1.701-1.7 3.416h-2.148v-7.63zm1.016-2.276h1.7c.024.434.19.656.52.656.332 0 .496-.223.52-.657h1.699c-.048.986-.637 1.643-2.22 1.643-1.581 0-2.172-.657-2.22-1.642zM26.746 77.867h-1.818l-.165-2.628V73.97h7.86v1.268l-.165 2.628h-1.817V75.66h-3.895v2.207zm2.88-8.145h-1.228c-.142.774-.201 1.103-.355 1.9-.426 2.184-1.228 3.615-2.667 3.615l-.26-1.268c.354-.118.755-.821 1.11-2.605.248-1.268.366-1.948.613-3.334h4.815v7.042h-2.03v-5.35h.002zm3.494 2.088c0-2.512 1.44-3.92 3.566-3.92 2.125 0 3.564 1.421 3.564 3.92 0 2.513-1.44 3.99-3.564 3.99-2.127 0-3.566-1.477-3.566-3.99zm5.052 0c0-1.385-.567-2.183-1.488-2.183-.92 0-1.488.798-1.488 2.184 0 1.385.566 2.253 1.488 2.253.92 0 1.488-.868 1.488-2.253zm3.446-3.778h2.03v2.91h1.842l2.856 4.718h-2.125l-1.912-3.099h-.66v3.099h-2.03v-7.628zm2.503 3.24l1.157-2.02c.566-.985 1.205-1.361 2.15-1.361.236 0 .52.023.707.117l-.331 1.807c-.142-.047-.284-.047-.355-.047-.355 0-.554.165-.802.586l-.779 1.315-1.747-.398zm6.491-1.551h-2.03v-1.69h6.091v1.69h-2.03v5.939h-2.03v-5.94zm4.511 2.089c0-2.512 1.44-3.92 3.566-3.92 2.125 0 3.566 1.421 3.566 3.92 0 2.513-1.441 3.99-3.566 3.99-2.127 0-3.566-1.477-3.566-3.99zm5.052 0c0-1.385-.566-2.183-1.486-2.183s-1.488.798-1.488 2.184c0 1.385.566 2.253 1.488 2.253s1.486-.868 1.486-2.253zm3.446-3.778h2.81c1.675 0 3.116.61 3.116 2.536 0 1.866-1.465 2.675-3.07 2.675h-.826v2.419h-2.03v-7.63zm2.764 3.614c.802 0 1.18-.4 1.18-1.08s-.45-.939-1.228-.939h-.684v2.019h.731z" fill="#fff"/><defs><linearGradient id="paint0_linear_82_315" x1="46.327" y1="6.564" x2="48.292" y2="88.562" gradientUnits="userSpaceOnUse"><stop stop-color="#38E0DE"/><stop offset="1" stop-color="#0699B8"/></linearGradient></defs></svg>