<svg width="60" height="83" viewBox="0 0 60 83" fill="none" xmlns="http://www.w3.org/2000/svg">
<path d="M28.0215 82.7834C27.7343 82.5201 20.9624 76.0354 14.0948 66.4399C4.73865 53.3508 0.000732422 41.2907 0.000732422 30.5705C0.000732422 14.0835 13.4009 0.68335 29.8879 0.68335C46.3749 0.68335 59.7751 14.0835 59.7751 30.5705C59.7751 41.195 55.0372 53.2551 45.681 66.3681C38.8134 75.9875 32.0415 82.5201 31.7544 82.7834H28.0215ZM29.8879 6.11521C16.392 6.11521 5.43259 17.0986 5.43259 30.5705C5.43259 49.929 23.8578 70.6993 29.8879 76.9686C35.8941 70.6514 54.3432 49.7376 54.3432 30.5705C54.3432 17.0746 43.3838 6.11521 29.8879 6.11521Z" fill="white"/>
<path d="M29.8878 44.3534C22.2784 44.3534 16.1047 38.1798 16.1047 30.5704C16.1047 22.961 22.2784 16.7874 29.8878 16.7874C37.4972 16.7874 43.6708 22.961 43.6708 30.5704C43.6708 38.1798 37.4972 44.3534 29.8878 44.3534ZM29.8878 22.2192C25.2695 22.2192 21.5366 25.9521 21.5366 30.5704C21.5366 35.1887 25.2934 38.9216 29.8878 38.9216C34.506 38.9216 38.239 35.1647 38.239 30.5704C38.239 25.976 34.506 22.2192 29.8878 22.2192Z" fill="white"/>
</svg>
