<svg width="30" height="31" viewBox="0 0 30 31" fill="none" xmlns="http://www.w3.org/2000/svg">
<path d="M16.6574 15.7769L29.6568 2.77744C30.1145 2.31976 30.1145 1.57773 29.6568 1.12011C29.1991 0.662495 28.4571 0.662437 27.9995 1.12011L15 14.1196L2.00058 1.12011C1.5429 0.662437 0.800873 0.662437 0.343257 1.12011C-0.11436 1.57779 -0.114419 2.31982 0.343257 2.77744L13.3427 15.7769L0.343257 28.7764C-0.114419 29.234 -0.114419 29.9761 0.343257 30.4337C0.572065 30.6625 0.872006 30.7769 1.17195 30.7769C1.47189 30.7769 1.77177 30.6625 2.00064 30.4337L15 17.4342L27.9994 30.4337C28.2282 30.6625 28.5282 30.7769 28.8281 30.7769C29.1281 30.7769 29.4279 30.6625 29.6568 30.4337C30.1145 29.976 30.1145 29.234 29.6568 28.7764L16.6574 15.7769Z" fill="#4C1978"/>
</svg>
