<svg width="48" height="66" viewBox="0 0 48 66" fill="none" xmlns="http://www.w3.org/2000/svg">
<g opacity="0.97">
<path opacity="0.97" d="M25.0198 65.4673C25.246 65.2599 30.5819 60.1503 35.9932 52.5896C43.3654 42.276 47.0986 32.7733 47.0986 24.3264C47.0986 11.3355 36.54 0.776855 23.5491 0.776855C10.5582 0.776855 -0.000408173 11.3355 -0.000408173 24.3264C-0.000408173 32.6979 3.73282 42.2006 11.105 52.533C16.5163 60.1126 21.8522 65.2599 22.0784 65.4673H25.0198ZM23.5491 5.05687C34.1832 5.05687 42.8186 13.7112 42.8186 24.3264C42.8186 39.5798 28.3005 55.9457 23.5491 60.8856C18.8166 55.908 4.27961 39.429 4.27961 24.3264C4.27961 13.6923 12.9151 5.05687 23.5491 5.05687Z" fill="#4C0085"/>
<path opacity="0.97" d="M23.5499 35.1864C29.5456 35.1864 34.4102 30.3219 34.4102 24.3261C34.4102 18.3303 29.5456 13.4658 23.5499 13.4658C17.5541 13.4658 12.6895 18.3303 12.6895 24.3261C12.6895 30.3219 17.5541 35.1864 23.5499 35.1864ZM23.5499 17.7458C27.1888 17.7458 30.1301 20.6872 30.1301 24.3261C30.1301 27.9651 27.17 30.9064 23.5499 30.9064C19.9109 30.9064 16.9696 27.9462 16.9696 24.3261C16.9696 20.706 19.9109 17.7458 23.5499 17.7458Z" fill="#4C0085"/>
</g>
</svg>
