<svg width="386" height="501" fill="none" xmlns="http://www.w3.org/2000/svg"><g opacity=".05" clip-path="url(#clip0_2530_6)"><path d="M499.145 186.622H229.253l-3.971 3.981v30.968l3.971 3.982h12.298v81.665a3.972 3.972 0 003.97 3.982c2.179 0 3.971-1.797 3.971-3.982v-35.971h229.309V518.57a3.971 3.971 0 003.97 3.981c2.179 0 3.971-1.797 3.971-3.981V225.588h12.298l3.97-3.981v-30.968l-3.865-4.017zm-249.618 76.663v-14.867h229.309v14.867H249.527zm229.309-22.865H249.527v-14.832h229.309v14.832zm16.304-22.83H233.258v-22.97h261.917v22.97h-.035z" fill="#fff"/><path fill-rule="evenodd" clip-rule="evenodd" d="M128.259 69v30.848l3.97 3.981h413.887l3.97-3.981V15.82l-3.97-3.98H186.662v7.961h355.483v76.065h-405.91V69h-7.976z" fill="#fff"/><path d="M893.214 53.836h-173.58a3.971 3.971 0 00-3.97 3.98 3.972 3.972 0 003.97 3.982h169.61v60.668H136.137V61.833h169.61a3.972 3.972 0 003.971-3.98 3.972 3.972 0 00-3.971-3.982h-173.58l-3.971 3.981v68.666l3.971 3.981h19.325v176.226a3.972 3.972 0 003.971 3.981c2.179 0 3.971-1.797 3.971-3.981V130.499h706.478v384.09H155.428a3.971 3.971 0 00-3.971 3.981c0 2.184 1.792 3.981 3.971 3.981h714.455l3.971-3.981V130.499h19.325l3.971-3.981V57.817l-3.936-3.981z" fill="#fff"/><path fill="#7700D1" d="M898.209 41.047H128.196v54.81h770.013z"/><path fill="#7700D1" d="M740.924 19.68H186.662V72.8h554.262zM151.165 58.389h-38.912V89.85h38.912zm0-14.987h-38.912v10.57h38.912z"/><path fill-rule="evenodd" clip-rule="evenodd" d="M192.549 19.902V11.89a38.613 38.613 0 00-1.943-.049h-24.347c-20.987 0-38 17.013-38 38v46.017h8V49.84c0-16.568 13.431-30 30-30h24.347c.653 0 1.301.021 1.943.062z" fill="#fff"/></g><g clip-path="url(#clip1_2530_6)"><mask id="a" fill="#fff"><path fill-rule="evenodd" clip-rule="evenodd" d="M108.38 305.693h184.049l7.259 7.266v184.233l-3.15 3.154v-36.177h-11.432V350.192h6.806v-40.29h-45.495v10.388H149.57v-10.388h-44.437v40.29h10.506v113.977h-10.506v37.039l-4.012-4.016V312.959l7.259-7.266zm28.396 198.766h128.119v-14.533H136.776v14.533z"/></mask><path fill-rule="evenodd" clip-rule="evenodd" d="M108.38 305.693h184.049l7.259 7.266v184.233l-3.15 3.154v-36.177h-11.432V350.192h6.806v-40.29h-45.495v10.388H149.57v-10.388h-44.437v40.29h10.506v113.977h-10.506v37.039l-4.012-4.016V312.959l7.259-7.266zm28.396 198.766h128.119v-14.533H136.776v14.533z" fill="#fff"/><path d="M292.429 305.693v-4h1.658l1.172 1.173-2.83 2.827zm-184.049 0l-2.83-2.827 1.172-1.173h1.658v4zm191.308 7.266l2.83-2.827 1.17 1.172v1.655h-4zm0 184.233h4v1.656l-1.17 1.171-2.83-2.827zm-3.15 3.154l2.83 2.827-6.83 6.837v-9.664h4zm0-36.177v-4h4v4h-4zm-11.432 0v4h-4v-4h4zm0-113.977h-4v-4h4v4zm6.806 0h4v4h-4v-4zm0-40.29v-4h4v4h-4zm-45.495 0h-4v-4h4v4zm0 10.388h4v4h-4v-4zm-96.847 0v4h-4v-4h4zm0-10.388v-4h4v4h-4zm-44.437 0h-4v-4h4v4zm0 40.29v4h-4v-4h4zm10.506 0v-4h4v4h-4zm0 113.977h4v4h-4v-4zm-10.506 0h-4v-4h4v4zm0 37.039h4v9.664l-6.83-6.837 2.83-2.827zm-4.012-4.016l-2.83 2.827-1.17-1.171v-1.656h4zm0-184.233h-4v-1.655l1.17-1.172 2.83 2.827zm163.774 191.5h4v4h-4v-4zm-128.119 0v4h-4v-4h4zm128.119-14.533v-4h4v4h-4zm-128.119 0h-4v-4h4v4zm155.653-180.233H108.38v-8h184.049v8zm4.43 6.093l-7.26-7.266 5.66-5.654 7.259 7.266-5.659 5.654zm-1.171 181.406V312.959h8v184.233h-8zm-1.98.327l3.151-3.154 5.659 5.654-3.15 3.154-5.66-5.654zm6.83-33.35v36.177h-8v-36.177h8zm-15.432-4h11.432v8h-11.432v-8zm4-109.977v113.977h-8V350.192h8zm-4-4h6.806v8h-6.806v-8zm2.806 4v-40.29h8v40.29h-8zm4-36.29h-45.495v-8h45.495v8zm-41.495-4v10.388h-8v-10.388h8zM149.57 316.29h96.847v8H149.57v-8zm4-6.388v10.388h-8v-10.388h8zm-48.437-4h44.437v8h-44.437v-8zm-4 44.29v-40.29h8v40.29h-8zm14.506 4h-10.506v-8h10.506v8zm-4 109.977V350.192h8v113.977h-8zm-6.506-4h10.506v8h-10.506v-8zm-4 41.039v-37.039h8v37.039h-8zm2.818-6.843l4.012 4.016-5.66 5.654-4.012-4.016 5.66-5.654zm1.17-181.406v184.233h-8V312.959h8zm6.089-4.439l-7.259 7.266-5.66-5.654 7.259-7.266 5.66 5.654zm153.685 199.939H136.776v-8h128.119v8zm4-18.533v14.533h-8v-14.533h8zm-132.119-4h128.119v8H136.776v-8zm-4 18.533v-14.533h8v14.533h-8z" fill="#7700D1" mask="url(#a)"/><mask id="b" fill="#fff"><path fill-rule="evenodd" clip-rule="evenodd" d="M244.58 387.693h-87.469l-7.541-7.339v-57.322c0-4.049 3.38-7.339 7.541-7.339 4.161 0 7.542 3.29 7.542 7.339v49.856h72.385v-49.856c0-4.049 3.381-7.339 7.542-7.339 4.16 0 7.541 3.29 7.541 7.339v57.322l-7.541 7.339z"/></mask><path fill-rule="evenodd" clip-rule="evenodd" d="M244.58 387.693h-87.469l-7.541-7.339v-57.322c0-4.049 3.38-7.339 7.541-7.339 4.161 0 7.542 3.29 7.542 7.339v49.856h72.385v-49.856c0-4.049 3.381-7.339 7.542-7.339 4.16 0 7.541 3.29 7.541 7.339v57.322l-7.541 7.339z" fill="#fff"/><path d="M244.58 387.693l2.789 2.866-1.164 1.134h-1.625v-4zm-87.469 0v4h-1.625l-1.164-1.134 2.789-2.866zm-7.541-7.339l-2.79 2.866-1.21-1.178v-1.688h4zm15.083-7.466v4h-4v-4h4zm72.385 0h4v4h-4v-4zm15.083 7.466h4v1.688l-1.21 1.178-2.79-2.866zm-36.108 3.339h28.567v8h-28.567v-8zm0 8h-30.335v-8h30.335v8zm-30.335 0h-28.567v-8h28.567v8zm-31.356-1.134l-7.542-7.339 5.579-5.733 7.542 7.339-5.579 5.733zm-8.752-10.205v-57.322h8v57.322h-8zm0-57.322c0-6.36 5.275-11.339 11.541-11.339v8c-2.055 0-3.541 1.601-3.541 3.339h-8zm11.541-11.339c6.267 0 11.542 4.979 11.542 11.339h-8c0-1.738-1.487-3.339-3.542-3.339v-8zm11.542 11.339v49.856h-8v-49.856h8zm-4 45.856h21.025v8h-21.025v-8zm21.025 0h30.335v8h-30.335v-8zm51.36 8h-21.025v-8h21.025v8zm4-53.856v49.856h-8v-49.856h8zm3.542-3.339c-2.055 0-3.542 1.601-3.542 3.339h-8c0-6.36 5.275-11.339 11.542-11.339v8zm3.541 3.339c0-1.738-1.486-3.339-3.541-3.339v-8c6.266 0 11.541 4.979 11.541 11.339h-8zm0 57.322v-57.322h8v57.322h-8zm-6.331 4.472l7.541-7.339 5.58 5.733-7.542 7.339-5.579-5.733z" fill="#7700D1" mask="url(#b)"/><path fill="#fff" stroke="#fff" stroke-width="3.509" d="M155.4 314.447h3.509v10.491H155.4z"/><path fill="#fff" stroke="#fff" stroke-width="3.577" d="M242.818 314.481h3.577v10.423h-3.577z"/><path fill-rule="evenodd" clip-rule="evenodd" d="M160.663 316.455h-17.53c-17.231 0-31.2 13.968-31.2 31.2v9.703h-6.8v-9.703c0-20.987 17.013-38 38-38h19.272c1.473 0 2.927.083 4.356.247h-6.098v6.553zm-48.695 128.782v17.53c0 17.231 13.969 31.2 31.2 31.2h7.74v6.8h-7.74c-20.987 0-38-17.013-38-38v-19.272c0-1.442.08-2.866.237-4.266v6.008h6.563zm176.941 0v17.53c0 17.231-13.969 31.2-31.2 31.2h-7.74v6.8h7.74c20.987 0 38-17.013 38-38v-19.272c0-1.442-.08-2.866-.237-4.266v6.008h-6.563zm-48.73-128.782h17.53c17.231 0 31.2 13.968 31.2 31.2v9.703h6.8v-9.703c0-20.987-17.013-38-38-38h-19.272c-1.473 0-2.927.083-4.356.247h6.098v6.553z" fill="#fff"/></g><g clip-path="url(#clip2_2530_6)"><mask id="c" fill="#fff"><path fill-rule="evenodd" clip-rule="evenodd" d="M292.164 305.693h184.049l7.259 7.266v184.233l-3.15 3.154v-36.177H468.89V350.192h6.805v-40.29h-45.494v10.388h-96.847v-10.388h-44.437v40.29h10.506v113.977h-10.506v37.039l-4.012-4.016V312.959l7.259-7.266zm28.396 198.766h128.119v-14.533H320.56v14.533z"/></mask><path fill-rule="evenodd" clip-rule="evenodd" d="M292.164 305.693h184.049l7.259 7.266v184.233l-3.15 3.154v-36.177H468.89V350.192h6.805v-40.29h-45.494v10.388h-96.847v-10.388h-44.437v40.29h10.506v113.977h-10.506v37.039l-4.012-4.016V312.959l7.259-7.266zm28.396 198.766h128.119v-14.533H320.56v14.533z" fill="#fff"/><path d="M476.213 305.693v-4h1.658l1.172 1.173-2.83 2.827zm-184.049 0l-2.83-2.827 1.172-1.173h1.658v4zm191.308 7.266l2.83-2.827 1.17 1.172v1.655h-4zm0 184.233h4v1.656l-1.17 1.171-2.83-2.827zm-3.15 3.154l2.83 2.827-6.83 6.837v-9.664h4zm0-36.177v-4h4v4h-4zm-11.432 0v4h-4v-4h4zm0-113.977h-4v-4h4v4zm6.805 0h4v4h-4v-4zm0-40.29v-4h4v4h-4zm-45.494 0h-4v-4h4v4zm0 10.388h4v4h-4v-4zm-96.847 0v4h-4v-4h4zm0-10.388v-4h4v4h-4zm-44.437 0h-4v-4h4v4zm0 40.29v4h-4v-4h4zm10.506 0v-4h4v4h-4zm0 113.977h4v4h-4v-4zm-10.506 0h-4v-4h4v4zm0 37.039h4v9.664l-6.83-6.837 2.83-2.827zm-4.012-4.016l-2.83 2.827-1.17-1.171v-1.656h4zm0-184.233h-4v-1.655l1.17-1.172 2.83 2.827zm163.774 191.5h4v4h-4v-4zm-128.119 0v4h-4v-4h4zm128.119-14.533v-4h4v4h-4zm-128.119 0h-4v-4h4v4zm155.653-180.233H292.164v-8h184.049v8zm4.429 6.093l-7.259-7.266 5.66-5.654 7.259 7.266-5.66 5.654zm-1.17 181.406V312.959h8v184.233h-8zm-1.98.327l3.15-3.154 5.66 5.654-3.15 3.154-5.66-5.654zm6.83-33.35v36.177h-8v-36.177h8zm-15.432-4h11.432v8H468.89v-8zm4-109.977v113.977h-8V350.192h8zm-4-4h6.805v8h-6.805v-8zm2.805 4v-40.29h8v40.29h-8zm4-36.29h-45.494v-8h45.494v8zm-41.494-4v10.388h-8v-10.388h8zm-100.847 6.388h96.847v8h-96.847v-8zm4-6.388v10.388h-8v-10.388h8zm-48.437-4h44.437v8h-44.437v-8zm-4 44.29v-40.29h8v40.29h-8zm14.506 4h-10.506v-8h10.506v8zm-4 109.977V350.192h8v113.977h-8zm-6.506-4h10.506v8h-10.506v-8zm-4 41.039v-37.039h8v37.039h-8zm2.818-6.843l4.012 4.016-5.66 5.654-4.012-4.016 5.66-5.654zm1.17-181.406v184.233h-8V312.959h8zm6.089-4.439l-7.259 7.266-5.66-5.654 7.259-7.266 5.66 5.654zm153.685 199.939H320.56v-8h128.119v8zm4-18.533v14.533h-8v-14.533h8zm-132.119-4h128.119v8H320.56v-8zm-4 18.533v-14.533h8v14.533h-8z" fill="#7700D1" mask="url(#c)"/><mask id="d" fill="#fff"><path fill-rule="evenodd" clip-rule="evenodd" d="M428.363 387.693h-87.468l-7.541-7.339v-57.322c0-4.049 3.38-7.339 7.541-7.339 4.161 0 7.542 3.29 7.542 7.339v49.856h72.385v-49.856c0-4.049 3.381-7.339 7.541-7.339 4.161 0 7.542 3.29 7.542 7.339v57.322l-7.542 7.339z"/></mask><path fill-rule="evenodd" clip-rule="evenodd" d="M428.363 387.693h-87.468l-7.541-7.339v-57.322c0-4.049 3.38-7.339 7.541-7.339 4.161 0 7.542 3.29 7.542 7.339v49.856h72.385v-49.856c0-4.049 3.381-7.339 7.541-7.339 4.161 0 7.542 3.29 7.542 7.339v57.322l-7.542 7.339z" fill="#fff"/><path d="M428.363 387.693l2.79 2.866-1.165 1.134h-1.625v-4zm-87.468 0v4h-1.625l-1.165-1.134 2.79-2.866zm-7.541-7.339l-2.79 2.866-1.21-1.178v-1.688h4zm15.083-7.466v4h-4v-4h4zm72.385 0h4v4h-4v-4zm15.083 7.466h4v1.688l-1.21 1.178-2.79-2.866zm-36.108 3.339h28.566v8h-28.566v-8zm0 8h-30.335v-8h30.335v8zm-30.335 0h-28.567v-8h28.567v8zm-31.357-1.134l-7.541-7.339 5.579-5.733 7.542 7.339-5.58 5.733zm-8.751-10.205v-57.322h8v57.322h-8zm0-57.322c0-6.36 5.274-11.339 11.541-11.339v8c-2.055 0-3.541 1.601-3.541 3.339h-8zm11.541-11.339c6.267 0 11.542 4.979 11.542 11.339h-8c0-1.738-1.487-3.339-3.542-3.339v-8zm11.542 11.339v49.856h-8v-49.856h8zm-4 45.856h21.025v8h-21.025v-8zm21.025 0h30.335v8h-30.335v-8zm51.36 8h-21.025v-8h21.025v8zm4-53.856v49.856h-8v-49.856h8zm3.541-3.339c-2.055 0-3.541 1.601-3.541 3.339h-8c0-6.36 5.275-11.339 11.541-11.339v8zm3.542 3.339c0-1.738-1.487-3.339-3.542-3.339v-8c6.267 0 11.542 4.979 11.542 11.339h-8zm0 57.322v-57.322h8v57.322h-8zm-6.331 4.472l7.541-7.339 5.58 5.733-7.542 7.339-5.579-5.733z" fill="#7700D1" mask="url(#d)"/><path fill="#fff" stroke="#fff" stroke-width="3.509" d="M339.184 314.447h3.509v10.491h-3.509z"/><path fill-rule="evenodd" clip-rule="evenodd" d="M344.447 316.455h-17.53c-17.231 0-31.2 13.968-31.2 31.2v9.703h-6.8v-9.703c0-20.987 17.013-38 38-38h19.272c1.473 0 2.927.083 4.356.247h-6.098v6.553zm-48.695 128.782v17.53c0 17.231 13.969 31.2 31.2 31.2h7.739v6.8h-7.739c-20.987 0-38-17.013-38-38v-19.272c0-1.442.08-2.866.237-4.266v6.008h6.563z" fill="#fff"/></g><defs><clipPath id="clip0_2530_6"><path fill="#fff" transform="translate(.564)" d="M0 0h955v500H0z"/></clipPath><clipPath id="clip1_2530_6"><path fill="#fff" transform="matrix(-1 0 0 1 295.28 310.004)" d="M0 0h190v190H0z"/></clipPath><clipPath id="clip2_2530_6"><path fill="#fff" transform="matrix(-1 0 0 1 479.064 310.004)" d="M0 0h190v190H0z"/></clipPath></defs></svg>