<svg width="380" height="501" fill="none" xmlns="http://www.w3.org/2000/svg"><g clip-path="url(#clip0_2530_3)"><mask id="a" fill="#fff"><path fill-rule="evenodd" clip-rule="evenodd" d="M272.184 305.693H88.134l-7.258 7.266v184.234l3.15 3.153v-36.177h11.432V350.192h-6.806v-40.29h45.495v10.388h96.847v-10.388h44.437v40.29h-10.507v113.977h10.507v37.04l4.012-4.016V312.959l-7.259-7.266zm-28.396 198.766H115.669v-14.533h128.119v14.533z"/></mask><path fill-rule="evenodd" clip-rule="evenodd" d="M272.184 305.693H88.134l-7.258 7.266v184.234l3.15 3.153v-36.177h11.432V350.192h-6.806v-40.29h45.495v10.388h96.847v-10.388h44.437v40.29h-10.507v113.977h10.507v37.04l4.012-4.016V312.959l-7.259-7.266zm-28.396 198.766H115.669v-14.533h128.119v14.533z" fill="#fff"/><path d="M88.135 305.693v-4h-1.658l-1.172 1.173 2.83 2.827zm184.049 0l2.83-2.827-1.172-1.173h-1.658v4zm-191.309 7.266l-2.83-2.827-1.17 1.172v1.655h4zm0 184.234h-4v1.655l1.17 1.172 2.83-2.827zm3.15 3.153l-2.829 2.827 6.83 6.837v-9.664h-4zm0-36.177v-4h-4v4h4zm11.433 0v4h4v-4h-4zm0-113.977h4v-4h-4v4zm-6.806 0h-4v4h4v-4zm0-40.29v-4h-4v4h4zm45.495 0h4v-4h-4v4zm0 10.388h-4v4h4v-4zm96.847 0v4h4v-4h-4zm0-10.388v-4h-4v4h4zm44.437 0h4v-4h-4v4zm0 40.29v4h4v-4h-4zm-10.507 0v-4h-4v4h4zm0 113.977h-4v4h4v-4zm10.507 0h4v-4h-4v4zm0 37.04h-4v9.663l6.83-6.837-2.83-2.826zm4.012-4.016l2.83 2.827 1.17-1.172v-1.655h-4zm0-184.234h4v-1.655l-1.17-1.172-2.83 2.827zm-163.774 191.5h-4v4h4v-4zm128.119 0v4h4v-4h-4zm-128.119-14.533v-4h-4v4h4zm128.119 0h4v-4h-4v4zM88.135 309.693h184.049v-8H88.134v8zm-4.43 6.093l7.26-7.266-5.66-5.654-7.26 7.266 5.66 5.654zm1.17 181.407V312.959h-8v184.234h8zm1.98.326l-3.15-3.153-5.66 5.654 3.151 3.153 5.66-5.654zm-6.83-33.35v36.177h8v-36.177h-8zm15.433-4H84.026v8h11.432v-8zm-4-109.977v113.977h8V350.192h-8zm4-4h-6.806v8h6.806v-8zm-2.806 4v-40.29h-8v40.29h8zm-4-36.29h45.495v-8H88.652v8zm41.495-4v10.388h8v-10.388h-8zm100.847 6.388h-96.847v8h96.847v-8zm-4-6.388v10.388h8v-10.388h-8zm48.437-4h-44.437v8h44.437v-8zm4 44.29v-40.29h-8v40.29h8zm-14.507 4h10.507v-8h-10.507v8zm4 109.977V350.192h-8v113.977h8zm6.507-4h-10.507v8h10.507v-8zm4 41.04v-37.04h-8v37.04h8zm-2.818-6.843l-4.012 4.016 5.66 5.653 4.012-4.015-5.66-5.654zm-1.17-181.407v184.234h8V312.959h-8zm-6.089-4.439l7.259 7.266 5.66-5.654-7.259-7.266-5.66 5.654zM115.669 508.459h128.119v-8H115.669v8zm-4-18.533v14.533h8v-14.533h-8zm132.119-4H115.669v8h128.119v-8zm4 18.533v-14.533h-8v14.533h8z" fill="#7700D1" mask="url(#a)"/><mask id="b" fill="#fff"><path fill-rule="evenodd" clip-rule="evenodd" d="M135.984 387.693h87.469l7.541-7.339v-57.322c0-4.049-3.38-7.339-7.541-7.339-4.161 0-7.542 3.29-7.542 7.339v49.856h-72.385v-49.856c0-4.049-3.381-7.339-7.542-7.339-4.16 0-7.541 3.29-7.541 7.339v57.322l7.541 7.339z"/></mask><path fill-rule="evenodd" clip-rule="evenodd" d="M135.984 387.693h87.469l7.541-7.339v-57.322c0-4.049-3.38-7.339-7.541-7.339-4.161 0-7.542 3.29-7.542 7.339v49.856h-72.385v-49.856c0-4.049-3.381-7.339-7.542-7.339-4.16 0-7.541 3.29-7.541 7.339v57.322l7.541 7.339z" fill="#fff"/><path d="M135.984 387.693l-2.789 2.866 1.164 1.134h1.625v-4zm87.469 0v4h1.625l1.164-1.134-2.789-2.866zm7.541-7.339l2.79 2.866 1.21-1.178v-1.688h-4zm-15.083-7.466v4h4v-4h-4zm-72.385 0h-4v4h4v-4zm-15.083 7.466h-4v1.688l1.21 1.178 2.79-2.866zm36.108 3.339h-28.567v8h28.567v-8zm0 8h30.335v-8h-30.335v8zm30.335 0h28.567v-8h-28.567v8zm31.356-1.134l7.542-7.339-5.58-5.733-7.541 7.339 5.579 5.733zm8.752-10.205v-57.322h-8v57.322h8zm0-57.322c0-6.36-5.275-11.339-11.541-11.339v8c2.055 0 3.541 1.601 3.541 3.339h8zm-11.541-11.339c-6.267 0-11.542 4.979-11.542 11.339h8c0-1.738 1.487-3.339 3.542-3.339v-8zm-11.542 11.339v49.856h8v-49.856h-8zm4 45.856h-21.025v8h21.025v-8zm-21.025 0h-30.335v8h30.335v-8zm-51.36 8h21.025v-8h-21.025v8zm-4-53.856v49.856h8v-49.856h-8zm-3.542-3.339c2.055 0 3.542 1.601 3.542 3.339h8c0-6.36-5.275-11.339-11.542-11.339v8zm-3.541 3.339c0-1.738 1.486-3.339 3.541-3.339v-8c-6.266 0-11.541 4.979-11.541 11.339h8zm0 57.322v-57.322h-8v57.322h8zm6.331 4.472l-7.541-7.339-5.58 5.733 7.542 7.339 5.579-5.733z" fill="#7700D1" mask="url(#b)"/><path fill="#fff" stroke="#fff" stroke-width="3.509" d="M225.164 314.447h-3.509v10.491h3.509z"/><path fill="#fff" stroke="#fff" stroke-width="3.577" d="M137.746 314.482h-3.577v10.423h3.577z"/><path fill-rule="evenodd" clip-rule="evenodd" d="M219.901 316.455h17.53c17.231 0 31.2 13.969 31.2 31.2v9.703h6.8v-9.703c0-20.987-17.013-38-38-38h-19.272c-1.473 0-2.927.084-4.356.247h6.098v6.553zm48.695 128.782v17.53c0 17.231-13.969 31.2-31.2 31.2h-7.74v6.8h7.74c20.987 0 38-17.013 38-38v-19.272c0-1.442-.08-2.866-.237-4.266v6.008h-6.563zm-176.941 0v17.53c0 17.231 13.969 31.2 31.2 31.2h7.74v6.8h-7.74c-20.987 0-38-17.013-38-38v-19.272c0-1.442.08-2.866.237-4.266v6.008h6.563zm48.73-128.782h-17.53c-17.231 0-31.2 13.969-31.2 31.2v9.703h-6.8v-9.703c0-20.987 17.013-38 38-38h19.272c1.473 0 2.927.084 4.356.247h-6.098v6.553z" fill="#fff"/></g><g clip-path="url(#clip1_2530_3)"><mask id="c" fill="#fff"><path fill-rule="evenodd" clip-rule="evenodd" d="M88.4 305.693H-95.65l-7.258 7.266v184.234l3.15 3.153v-36.177h11.432V350.192h-6.806v-40.29h45.496v10.388H47.21v-10.388h44.437v40.29H81.141v113.977h10.506v37.04l4.012-4.016V312.959l-7.259-7.266zM60.004 504.459H-68.115v-14.533H60.004v14.533z"/></mask><path fill-rule="evenodd" clip-rule="evenodd" d="M88.4 305.693H-95.65l-7.258 7.266v184.234l3.15 3.153v-36.177h11.432V350.192h-6.806v-40.29h45.496v10.388H47.21v-10.388h44.437v40.29H81.141v113.977h10.506v37.04l4.012-4.016V312.959l-7.259-7.266zM60.004 504.459H-68.115v-14.533H60.004v14.533z" fill="#fff"/><path d="M-95.65 305.693v-4h-1.657l-1.172 1.173 2.83 2.827zm184.05 0l2.83-2.827-1.172-1.173H88.4v4zm-191.308 7.266l-2.83-2.827-1.17 1.172v1.655h4zm0 184.234h-4v1.655l1.17 1.172 2.83-2.827zm3.15 3.153l-2.83 2.827 6.83 6.837v-9.664h-4zm0-36.177v-4h-4v4h4zm11.432 0v4h4v-4h-4zm0-113.977h4v-4h-4v4zm-6.806 0h-4v4h4v-4zm0-40.29v-4h-4v4h4zm45.496 0h4v-4h-4v4zm0 10.388h-4v4h4v-4zm96.846 0v4h4v-4h-4zm0-10.388v-4h-4v4h4zm44.437 0h4v-4h-4v4zm0 40.29v4h4v-4h-4zm-10.506 0v-4h-4v4h4zm0 113.977h-4v4h4v-4zm10.506 0h4v-4h-4v4zm0 37.04h-4v9.663l6.83-6.837-2.83-2.826zm4.012-4.016l2.83 2.827 1.17-1.172v-1.655h-4zm0-184.234h4v-1.655l-1.17-1.172-2.83 2.827zm-163.774 191.5h-4v4h4v-4zm128.119 0v4h4v-4h-4zm-128.119-14.533v-4h-4v4h4zm128.119 0h4v-4h-4v4zM-95.65 309.693H88.4v-8H-95.65v8zm-4.429 6.093l7.259-7.266-5.66-5.654-7.259 7.266 5.66 5.654zm1.17 181.407V312.959h-8v184.234h8zm1.98.326l-3.15-3.153-5.66 5.654 3.15 3.153 5.66-5.654zm-6.83-33.35v36.177h8v-36.177h-8zm15.432-4h-11.432v8h11.432v-8zm-4-109.977v113.977h8V350.192h-8zm4-4h-6.806v8h6.806v-8zm-2.806 4v-40.29h-8v40.29h8zm-4-36.29h45.496v-8h-45.495v8zm41.496-4v10.388h8v-10.388h-8zM47.21 316.29h-96.846v8H47.21v-8zm-4-6.388v10.388h8v-10.388h-8zm48.437-4H47.21v8h44.437v-8zm4 44.29v-40.29h-8v40.29h8zm-14.506 4h10.506v-8H81.141v8zm4 109.977V350.192h-8v113.977h8zm6.506-4H81.141v8h10.506v-8zm4 41.04v-37.04h-8v37.04h8zm-2.818-6.843l-4.012 4.016 5.66 5.653 4.012-4.015-5.66-5.654zm-1.17-181.407v184.234h8V312.959h-8zm-6.089-4.439l7.26 7.266 5.659-5.654-7.26-7.266-5.659 5.654zM-68.115 508.459H60.004v-8H-68.115v8zm-4-18.533v14.533h8v-14.533h-8zm132.119-4H-68.115v8H60.004v-8zm4 18.533v-14.533h-8v14.533h8z" fill="#7700D1" mask="url(#c)"/><mask id="d" fill="#fff"><path fill-rule="evenodd" clip-rule="evenodd" d="M-47.8 387.693h87.47l7.541-7.339v-57.322c0-4.049-3.38-7.339-7.541-7.339-4.161 0-7.542 3.29-7.542 7.339v49.856h-72.386v-49.856c0-4.049-3.38-7.339-7.541-7.339-4.161 0-7.542 3.29-7.542 7.339v57.322l7.542 7.339z"/></mask><path fill-rule="evenodd" clip-rule="evenodd" d="M-47.8 387.693h87.47l7.541-7.339v-57.322c0-4.049-3.38-7.339-7.541-7.339-4.161 0-7.542 3.29-7.542 7.339v49.856h-72.386v-49.856c0-4.049-3.38-7.339-7.541-7.339-4.161 0-7.542 3.29-7.542 7.339v57.322l7.542 7.339z" fill="#fff"/><path d="M-47.8 387.693l-2.79 2.866 1.166 1.134h1.625v-4zm87.469 0v4h1.625l1.165-1.134-2.79-2.866zm7.541-7.339L50 383.22l1.21-1.178v-1.688h-4zm-15.083-7.466v4h4v-4h-4zm-72.385 0h-4v4h4v-4zm-15.083 7.466h-4v1.688l1.21 1.178 2.79-2.866zm36.108 3.339h-28.566v8h28.566v-8zm0 8h30.335v-8h-30.335v8zm30.335 0H39.67v-8H11.102v8zm31.357-1.134L50 383.22l-5.58-5.733-7.54 7.339 5.579 5.733zm8.751-10.205v-57.322h-8v57.322h8zm0-57.322c0-6.36-5.274-11.339-11.541-11.339v8c2.055 0 3.541 1.601 3.541 3.339h8zm-11.54-11.339c-6.267 0-11.542 4.979-11.542 11.339h8c0-1.738 1.487-3.339 3.542-3.339v-8zm-11.542 11.339v49.856h8v-49.856h-8zm4 45.856H11.102v8h21.025v-8zm-21.025 0h-30.335v8h30.335v-8zm-51.36 8h21.025v-8h-21.025v8zm-4-53.856v49.856h8v-49.856h-8zm-3.541-3.339c2.054 0 3.541 1.601 3.541 3.339h8c0-6.36-5.275-11.339-11.541-11.339v8zm-3.542 3.339c0-1.738 1.487-3.339 3.542-3.339v-8c-6.267 0-11.542 4.979-11.542 11.339h8zm0 57.322v-57.322h-8v57.322h8zm6.331 4.472l-7.541-7.339-5.58 5.733 7.542 7.339 5.58-5.733z" fill="#7700D1" mask="url(#d)"/><path fill="#fff" stroke="#fff" stroke-width="3.509" d="M41.38 314.447h-3.51v10.491h3.51z"/><path fill-rule="evenodd" clip-rule="evenodd" d="M36.117 316.455h17.53c17.232 0 31.2 13.969 31.2 31.2v9.703h6.8v-9.703c0-20.987-17.013-38-38-38H34.376a38.45 38.45 0 00-4.357.247h6.098v6.553zm48.695 128.782v17.53c0 17.231-13.969 31.2-31.2 31.2h-7.74v6.8h7.74c20.987 0 38-17.013 38-38v-19.272c0-1.442-.08-2.866-.237-4.266v6.008h-6.563z" fill="#fff"/></g><g opacity=".05" clip-path="url(#clip2_2530_3)"><path d="M-118.581 186.622h269.892l3.971 3.981v30.969l-3.971 3.981h-12.298v81.666a3.972 3.972 0 01-3.97 3.981c-2.179 0-3.971-1.797-3.971-3.981v-35.971H-98.237V518.57a3.971 3.971 0 01-3.97 3.981c-2.179 0-3.971-1.796-3.971-3.981V225.588h-12.298l-3.971-3.981v-30.968l3.866-4.017zm249.618 76.663v-14.867H-98.272v14.867h229.309zM-98.272 240.42h229.309v-14.832H-98.272v14.832zm-16.304-22.829h261.882V194.62h-261.917v22.971h.035z" fill="#fff"/><path fill-rule="evenodd" clip-rule="evenodd" d="M252.305 69v30.848l-3.97 3.981h-413.887l-3.97-3.981V15.82l3.97-3.98h359.454v7.962h-355.483v76.064h405.91V69h7.976z" fill="#fff"/><path d="M-512.65 53.836h173.58a3.972 3.972 0 013.97 3.98 3.972 3.972 0 01-3.97 3.982h-169.61v60.668h753.107V61.833H74.817a3.972 3.972 0 01-3.97-3.98 3.972 3.972 0 013.97-3.982h173.58l3.971 3.981v68.666l-3.971 3.981h-19.326v176.226a3.97 3.97 0 01-3.97 3.981c-2.179 0-3.971-1.797-3.971-3.981V130.499h-706.478v384.09h710.484a3.972 3.972 0 013.971 3.981c0 2.184-1.792 3.981-3.971 3.981h-714.455l-3.971-3.981V130.499h-19.325l-3.971-3.981V57.817l3.936-3.981z" fill="#fff"/><path fill="#7700D1" d="M-517.646 41.047h770.013v54.81h-770.013z"/><path fill="#7700D1" d="M-360.36 19.681h554.262v53.12H-360.36zm589.759 38.708h38.912v31.462h-38.912zm0-14.987h38.912v10.569h-38.912z"/><path fill-rule="evenodd" clip-rule="evenodd" d="M188.015 19.902V11.89a38.495 38.495 0 011.943-.049h24.347c20.987 0 38 17.014 38 38v46.017h-8V49.84c0-16.568-13.431-30-30-30h-24.347c-.653 0-1.301.021-1.943.062z" fill="#fff"/></g><defs><clipPath id="clip0_2530_3"><path fill="#fff" transform="translate(85.284 310.004)" d="M0 0h190v190H0z"/></clipPath><clipPath id="clip1_2530_3"><path fill="#fff" transform="translate(-98.5 310.004)" d="M0 0h190v190H0z"/></clipPath><clipPath id="clip2_2530_3"><path fill="#fff" transform="matrix(-1 0 0 1 380 0)" d="M0 0h955v500H0z"/></clipPath></defs></svg>