<svg width="360" height="177" fill="none" xmlns="http://www.w3.org/2000/svg"><g clip-path="url(#clip0_2_1198)"><path fill="#7700D1" d="M76.482 4.417h159.599v117.65H76.482z"/><path d="M206.627 42.013l75.091 2.714 27.658 26.492 38.394 37.707 6.369 9.475 2.547 10.635-2.547 17.56-15.096 2.094-3.989 1.197-128.427 3.055V42.012z" fill="#7700D1"/><path d="M23.924 69.76H2.54A2.557 2.557 0 010 67.212a2.557 2.557 0 012.54-2.547h21.384c1.393 0 2.54 1.15 2.54 2.547a2.53 2.53 0 01-2.54 2.548zm22.571-26.792H25.112a2.557 2.557 0 01-2.54-2.548 2.557 2.557 0 012.54-2.548h21.383c1.393 0 2.54 1.15 2.54 2.548a2.557 2.557 0 01-2.54 2.548zm0 53.626H25.112a2.557 2.557 0 01-2.54-2.548 2.557 2.557 0 012.54-2.548h21.383c1.393 0 2.54 1.15 2.54 2.548a2.557 2.557 0 01-2.54 2.547zm309.982 31.066h-.246c-15.443-1.644-25.767-20.136-26.217-20.917l2.089-3.534h16.468a2.382 2.382 0 012.376 2.384 2.381 2.381 0 01-2.376 2.383h-12.126c3.564 5.096 11.061 13.972 20.278 14.958 1.311.123 2.253 1.315 2.13 2.63-.164 1.192-1.188 2.096-2.376 2.096z" fill="#fff"/><path d="M345.335 151.165h-10.364a2.382 2.382 0 01-2.376-2.384 2.381 2.381 0 012.376-2.383h10.364c5.448 0 9.872-4.438 9.872-9.903v-13.767c0-6.04-4.055-14.218-8.807-17.875l-.164-.123-61.816-56.626c-3.359-2.507-5.367-2.507-10.078-2.424-.819 0-1.72.04-2.662.04h-32.158a2.381 2.381 0 01-2.376-2.383 2.381 2.381 0 012.376-2.383h32.158c.942 0 1.802 0 2.621-.041 5.039-.082 8.357-.123 13.068 3.452l.164.123 61.816 56.585c5.94 4.602 10.61 14.094 10.61 21.614v13.766c.041 8.096-6.554 14.712-14.624 14.712zm-61.12 0h-45.758a2.382 2.382 0 01-2.376-2.384 2.381 2.381 0 012.376-2.383h45.758a2.381 2.381 0 012.376 2.383 2.382 2.382 0 01-2.376 2.384z" fill="#fff"/><path d="M309.572 176.683c-15.28 0-27.733-12.492-27.733-27.82 0-15.327 12.453-27.82 27.733-27.82 15.28 0 27.734 12.493 27.734 27.82.041 15.328-12.413 27.82-27.734 27.82zm0-50.873c-12.658 0-22.981 10.356-22.981 23.053 0 12.698 10.323 23.053 22.981 23.053 12.659 0 22.982-10.355 22.982-23.053 0-12.697-10.282-23.053-22.982-23.053z" fill="#fff"/><path d="M309.572 162.547c-7.537 0-13.641-6.123-13.641-13.684 0-7.561 6.104-13.684 13.641-13.684 7.538 0 13.642 6.123 13.642 13.684 0 7.561-6.104 13.684-13.642 13.684zm0-22.601c-4.916 0-8.889 3.986-8.889 8.917 0 4.931 3.973 8.917 8.889 8.917 4.916 0 8.89-3.986 8.89-8.917 0-4.931-3.974-8.917-8.89-8.917zM285.69 125.81h-33.428a2.382 2.382 0 01-2.376-2.383 2.382 2.382 0 012.376-2.384h33.428a2.382 2.382 0 012.376 2.384 2.381 2.381 0 01-2.376 2.383zm31.952-33.408h-65.38l-2.376-2.383V54.556l2.376-2.384h27.774l1.639.658 37.606 35.463-1.639 4.11zm-63.004-4.767h57.023L279.094 56.94h-24.456v30.696zm-16.304 62.133a2.382 2.382 0 01-2.376-2.384V43.625a2.381 2.381 0 012.376-2.383 2.381 2.381 0 012.376 2.383v103.759a2.382 2.382 0 01-2.376 2.384z" fill="#fff"/><path d="M256.523 151.165h-94.138a2.382 2.382 0 01-2.376-2.384 2.381 2.381 0 012.376-2.383h94.138a2.381 2.381 0 012.376 2.383 2.382 2.382 0 01-2.376 2.384zm-144.852-.001h-3.523c-7.62 0-13.805-6.205-13.805-13.848v-13.889a2.382 2.382 0 012.376-2.384 2.382 2.382 0 012.376 2.384v13.889c0 5.013 4.055 9.082 9.053 9.082h3.523a2.381 2.381 0 012.376 2.383 2.381 2.381 0 01-2.376 2.383z" fill="#fff"/><path d="M137.028 176.683c-15.28 0-27.733-12.492-27.733-27.82 0-15.327 12.453-27.82 27.733-27.82 15.28 0 27.733 12.493 27.733 27.82 0 15.328-12.453 27.82-27.733 27.82zm0-50.873c-12.658 0-22.981 10.356-22.981 23.053 0 12.698 10.323 23.053 22.981 23.053 12.658 0 22.981-10.355 22.981-23.053 0-12.697-10.323-23.053-22.981-23.053z" fill="#fff"/><path d="M137.028 162.547c-7.537 0-13.641-6.123-13.641-13.684 0-7.561 6.104-13.684 13.641-13.684 7.538 0 13.641 6.123 13.641 13.684 0 7.561-6.144 13.684-13.641 13.684zm0-22.601c-4.916 0-8.889 3.986-8.889 8.917 0 4.931 3.973 8.917 8.889 8.917 4.916 0 8.889-3.986 8.889-8.917 0-4.931-4.014-8.917-8.889-8.917zm197.866 10.213v-2.756h8.713v2.756zm-80.325 0v-2.756h28.664v2.756zm-91.913 0v-2.756h28.664v2.756zm103.78-75.509a2.514 2.514 0 01-1.556-.575 2.403 2.403 0 01-.246-3.37l14.42-16.971a2.385 2.385 0 013.359-.247 2.402 2.402 0 01.245 3.37l-14.419 16.971c-.451.575-1.147.822-1.803.822zm.86 17.752a2.514 2.514 0 01-1.556-.575 2.403 2.403 0 01-.246-3.37l16.304-19.19a2.385 2.385 0 013.359-.247 2.403 2.403 0 01.246 3.37L269.14 91.58a2.485 2.485 0 01-1.844.822zm-4.014 6.451h-11.02v4.767h11.02v-4.767z" fill="#fff"/><path fill-rule="evenodd" clip-rule="evenodd" d="M74.057 36.297v87.13l2.376 2.383h162.344l2.376-2.383v-87.13h-4.752v84.747H78.809V36.297h-4.752zM118.91 5.45H194V.683h-75.09V5.45z" fill="#fff"/><path fill="#fff" d="M350.488 104.216v2.756h-5.302v-2.756zm7.755 19.503v2.788h-3.151v-2.788zm-84.493-35.07v2.753h-8.831v-2.753zM112.43 54.404c1.451 0 2.55.393 3.295 1.18.758.774 1.137 1.915 1.137 3.423v4.803c0 1.507-.379 2.655-1.137 3.442-.745.774-1.844 1.16-3.295 1.16h-7.515V54.405h7.515zm.963 4.603c0-1.201-.578-1.801-1.734-1.801h-3.276v8.405h3.276c1.156 0 1.734-.6 1.734-1.801v-4.803zm14.64-.801c0-.8-.385-1.2-1.156-1.2h-3.276c-.771 0-1.156.4-1.156 1.2v6.404c0 .8.385 1.201 1.156 1.201h3.276c.771 0 1.156-.4 1.156-1.2v-6.405zm3.469 6.404c0 1.401-.309 2.422-.925 3.062-.604.627-1.58.941-2.929.941h-4.818c-1.349 0-2.331-.314-2.948-.94-.604-.641-.906-1.662-.906-3.063v-6.404c0-1.4.302-2.415.906-3.042.617-.64 1.599-.96 2.948-.96h4.818c1.349 0 2.325.32 2.929.96.616.627.925 1.641.925 3.042v6.404zm2.109.901c3.52.2 5.903.3 7.149.3.296 0 .527-.087.694-.26.18-.187.27-.434.27-.74v-1.802h-4.432c-1.349 0-2.332-.313-2.949-.94-.604-.64-.905-1.661-.905-3.062v-.6c0-1.402.301-2.416.905-3.043.617-.64 1.6-.96 2.949-.96h6.763v2.802h-5.993c-.77 0-1.156.4-1.156 1.2v.4c0 .801.386 1.201 1.156 1.201h3.469c1.259 0 2.184.307 2.775.921.591.614.886 1.574.886 2.882v1c0 1.308-.295 2.269-.886 2.882-.591.614-1.516.921-2.775.921-.655 0-1.349-.013-2.081-.04l-1.773-.08c-1.31-.067-2.666-.16-4.066-.28V65.51zm19.484 2.902h-3.469V57.206h-4.046v-2.802h11.562v2.802h-4.047v11.207zm7.03 0h-3.758l5.107-14.01h3.854l5.106 14.01h-3.758l-.867-2.502h-4.817l-.867 2.502zm1.734-5.103h3.083l-1.541-4.704-1.542 4.703zm14.446.9l3.275-9.806h3.758l-5.106 14.009h-3.854l-5.107-14.01h3.758l3.276 9.807zm19.269 4.203h-10.695v-14.01h10.695v2.803h-7.227v2.701h5.685v2.802h-5.685v2.902h7.227v2.802zm2.115-14.009h8.093c1.349 0 2.325.32 2.929.96.617.627.925 1.641.925 3.042v1.802c0 1.107-.18 1.968-.539 2.581-.347.614-.906 1.02-1.677 1.221l2.409 4.403h-3.758l-2.216-4.203h-2.698v4.203h-3.468v-14.01zm8.479 4.002c0-.8-.386-1.2-1.157-1.2h-3.854v4.202h3.854c.771 0 1.157-.4 1.157-1.2v-1.802zm38.752-16.453v2.756h-7.534v-2.756zm-7.95 80.641h2.756v25.918h-2.756z"/><path fill-rule="evenodd" clip-rule="evenodd" d="M177.429 5.483h26.698c17.711 0 32.089 14.271 32.261 31.942h4.8C241.016 17.103 224.489.683 204.127.683h-26.698c-1.628 0-3.232.105-4.804.309h3.881v4.504c.307-.009.615-.013.923-.013zm-39.613 0h-26.697c-17.711 0-32.09 14.271-32.261 31.942h-4.8C74.23 17.103 90.756.683 111.118.683h26.697c1.629 0 3.232.105 4.805.309h-3.881v4.504a32.92 32.92 0 00-.924-.013z" fill="#fff"/></g><defs><clipPath id="clip0_2_1198"><path fill="#fff" transform="translate(0 .683)" d="M0 0h360v176H0z"/></clipPath></defs></svg>