<svg width="391" height="657" fill="none" xmlns="http://www.w3.org/2000/svg"><g opacity=".05" clip-path="url(#clip0_48_94)"><path d="M57.405 407.55c0 4.844 3.933 8.776 8.778 8.776H101.3c4.846 0 8.778-3.932 8.778-8.776v-52.663c0-4.844-3.932-8.776-8.778-8.776H66.184c-4.845 0-8.778 3.932-8.778 8.776v52.663h-.001zm17.558-43.885H92.52v35.108H74.963v-35.108zM285.654 618.2c0 4.844 3.933 8.776 8.778 8.776h35.115c4.846 0 8.779-3.932 8.779-8.776v-52.663c0-4.844-3.933-8.777-8.779-8.777h-35.115c-4.845 0-8.778 3.933-8.778 8.777V618.2zm17.558-43.885h17.558v35.108h-17.558v-35.108zm-8.78-157.987h35.115c4.846 0 8.779-3.933 8.779-8.777v-52.662c0-4.845-3.933-8.777-8.779-8.777h-35.115c-4.845 0-8.778 3.932-8.778 8.777v52.662c0 4.844 3.933 8.777 8.778 8.777zm8.78-52.663h17.558v35.108h-17.558v-35.108zM145.193 407.55c0 4.844 3.933 8.776 8.779 8.776h35.115c4.845 0 8.778-3.932 8.778-8.776v-52.663c0-4.844-3.933-8.776-8.778-8.776h-35.115c-4.846 0-8.779 3.932-8.779 8.776v52.663zm17.557-43.885h17.558v35.108H162.75v-35.108z" fill="#fff" stroke="#7700D1" stroke-width="11"/><path fill-rule="evenodd" clip-rule="evenodd" d="M276.876 293.449h105.346c4.845 0 8.778 3.932 8.778 8.776v386.191c0 14.518-11.816 26.332-26.336 26.332h-70.229c-14.52 0-26.337-11.814-26.337-26.332 0-14.517 11.817-26.331 26.337-26.331 1.518 0 3.028.132 4.512.395 6.057-10.91 17.584-17.949 30.603-17.949 13.019 0 24.545 7.039 30.602 17.949a25.86 25.86 0 014.513-.395c3.098 0 6.022.632 8.778 1.615V333.956h13.662v-36.775h-34.278v13.821h-75.951c-4.846 0-8.779-3.932-8.779-8.777 0-4.844 3.933-8.776 8.779-8.776zm17.557 403.744h70.231c4.837 0 8.778-3.94 8.779-8.777 0-6.521-7.822-11.032-13.536-7.346a8.81 8.81 0 01-8.06.755 8.753 8.753 0 01-5.25-6.152c-1.852-7.996-8.867-13.588-17.048-13.588-8.182 0-15.196 5.592-17.049 13.588a8.753 8.753 0 01-5.25 6.152 8.804 8.804 0 01-8.059-.755c-1.476-.948-3.073-1.43-4.758-1.43-4.838 0-8.779 3.94-8.779 8.776 0 4.837 3.941 8.777 8.779 8.777z" fill="#fff"/><path d="M298.947 662.48l-.961 5.416 3.864.686 1.905-3.432-4.808-2.67zm61.205 0l-4.808 2.67 1.905 3.432 3.865-.686-.962-5.416zm13.291 1.22l-1.848 5.18 7.348 2.622V663.7h-5.5zm0-329.744v-5.5h-5.5v5.5h5.5zm13.662 0v5.5h5.5v-5.5h-5.5zm0-36.775h5.5v-5.5h-5.5v5.5zm-34.278 0v-5.5h-5.5v5.5h5.5zm0 13.821v5.5h5.5v-5.5h-5.5zm20.616 377.414l5.5.002v-.002h-5.5zm-13.536-7.346l2.971 4.629.01-.007-2.981-4.622zm-8.06.755l2.065-5.097-.005-.002-2.06 5.099zm-5.25-6.152l5.36-1.235-.002-.007-5.358 1.242zm-34.097 0l-5.358-1.242-.002.007 5.36 1.235zm-13.309 5.397l-2.974 4.627.001.001 2.973-4.628zm83.031-393.121H276.876v11h105.346v-11zm14.278 14.276c0-7.883-6.396-14.276-14.278-14.276v11a3.281 3.281 0 013.278 3.276h11zm0 386.191V302.225h-11v386.191h11zm-31.836 31.832c17.556 0 31.836-14.276 31.836-31.832h-11c0 11.479-9.353 20.832-20.836 20.832v11zm-70.229 0h70.229v-11h-70.229v11zm-31.837-31.832c0 17.556 14.28 31.832 31.837 31.832v-11c-11.484 0-20.837-9.353-20.837-20.832h-11zm31.837-31.831c-17.557 0-31.837 14.276-31.837 31.831h11c0-11.478 9.353-20.831 20.837-20.831v-11zm5.473.48a31.26 31.26 0 00-5.473-.48v11c1.2 0 2.389.104 3.551.311l1.922-10.831zm29.642-18.034c-15.046 0-28.398 8.148-35.412 20.779l9.617 5.34c5.102-9.188 14.802-15.119 25.795-15.119v-11zm35.411 20.779c-7.013-12.631-20.366-20.779-35.411-20.779v11c10.992 0 20.692 5.931 25.794 15.119l9.617-5.34zm-.296-3.225c-1.837 0-3.669.159-5.474.48l1.923 10.831a20.236 20.236 0 013.551-.311v-11zm10.626 1.935c-3.214-1.147-6.769-1.935-10.626-1.935v11c2.339 0 4.632.475 6.93 1.295l3.696-10.36zm-7.348-324.564V663.7h11V333.956h-11zm19.162-5.5h-13.662v11h13.662v-11zm-5.5-31.275v36.775h11v-36.775h-11zm-28.778 5.5h34.278v-11h-34.278v11zm5.5 8.321v-13.821h-11v13.821h11zm-81.451 5.5h75.951v-11h-75.951v11zm-14.279-14.277c0 7.884 6.397 14.277 14.279 14.277v-11a3.282 3.282 0 01-3.279-3.277h-11zm14.279-14.276c-7.882 0-14.279 6.393-14.279 14.276h11a3.281 3.281 0 013.279-3.276v-11zm87.788 403.744h-70.231v11h70.231v-11zm3.279-3.278a3.293 3.293 0 01-3.279 3.278v11c7.874 0 14.277-6.402 14.279-14.275l-11-.003zm-5.055-2.723c.893-.576 2.078-.624 3.26.032 1.218.676 1.795 1.746 1.795 2.692h11c0-10.755-12.542-18.08-22.018-11.967l5.963 9.243zm-13.106 1.231a14.308 14.308 0 0013.096-1.224l-5.943-9.257a3.308 3.308 0 01-3.023.286l-4.13 10.195zm-8.544-10.016a14.256 14.256 0 008.549 10.018l4.12-10.199a3.256 3.256 0 01-1.95-2.288l-10.719 2.469zm-11.689-9.322c5.609 0 10.412 3.814 11.69 9.329l10.716-2.483c-2.427-10.477-11.652-17.846-22.406-17.846v11zm-11.691 9.329c1.278-5.515 6.081-9.329 11.691-9.329v-11c-10.754 0-19.98 7.369-22.407 17.846l10.716 2.483zm-8.548 10.011a14.255 14.255 0 008.55-10.018l-10.72-2.469a3.256 3.256 0 01-1.95 2.288l4.12 10.199zm-13.092-1.227a14.306 14.306 0 0013.092 1.227l-4.12-10.199a3.308 3.308 0 01-3.027-.283l-5.945 9.255zm-1.785-.558c.579 0 1.152.151 1.784.557l5.948-9.253c-2.319-1.491-4.942-2.304-7.732-2.304v11zm-3.279 3.276a3.292 3.292 0 013.279-3.276v-11c-7.874 0-14.279 6.402-14.279 14.276h11zm3.279 3.277a3.292 3.292 0 01-3.279-3.277h-11c0 7.875 6.405 14.277 14.279 14.277v-11z" fill="#7700D1"/><path d="M153.972 311.003h35.115c4.845 0 8.778-3.932 8.778-8.777v-52.662c0-4.844-3.933-8.777-8.778-8.777h-35.115c-4.846 0-8.779 3.933-8.779 8.777v52.662c0 4.845 3.933 8.777 8.779 8.777zm8.778-52.662h17.558v35.108H162.75v-35.108zm-17.557 254.534c0 4.844 3.933 8.776 8.779 8.776h35.115c4.845 0 8.778-3.932 8.778-8.776v-52.663c0-4.844-3.933-8.776-8.778-8.776h-35.115c-4.846 0-8.779 3.932-8.779 8.776v52.663zm17.557-43.885h17.558v35.108H162.75V468.99zM66.184 311.003H101.3c4.846 0 8.779-3.932 8.779-8.777v-52.662c0-4.844-3.933-8.777-8.779-8.777H66.184c-4.845 0-8.778 3.933-8.778 8.777v52.662c-.001 4.845 3.932 8.777 8.778 8.777zm8.779-52.662H92.52v35.108H74.963v-35.108zm46.439 353.627c-1.58 1.667-2.546 3.95-2.546 6.232 0 2.283.966 4.564 2.546 6.232 1.668 1.58 3.951 2.546 6.233 2.546 2.283 0 4.565-.966 6.234-2.546 1.58-1.667 2.546-3.949 2.546-6.232 0-2.282-.966-4.564-2.546-6.232-3.337-3.248-9.131-3.248-12.467 0zm-63.997-99.093c0 4.844 3.933 8.776 8.778 8.776H101.3c4.846 0 8.778-3.932 8.778-8.776v-52.663c0-4.844-3.932-8.776-8.778-8.776H66.184c-4.845 0-8.778 3.932-8.778 8.776v52.663h-.001zm17.558-43.885H92.52v35.108H74.963V468.99z" fill="#fff" stroke="#7700D1" stroke-width="11"/><path d="M39.848 565.537c0 4.845 3.933 8.777 8.778 8.777h26.337v78.993c0 4.845 3.933 8.777 8.778 8.777 4.846 0 8.779-3.932 8.779-8.777v-78.993h70.231v78.993c0 4.845 3.933 8.777 8.778 8.777 4.846 0 8.779-3.932 8.779-8.777v-78.993h26.336c4.846 0 8.779-3.932 8.779-8.777 0-4.844-3.933-8.777-8.779-8.777H48.626c-4.845 0-8.778 3.933-8.778 8.777zm245.806-52.662c0 4.844 3.933 8.776 8.778 8.776h35.115c4.846 0 8.779-3.932 8.779-8.776v-52.663c0-4.844-3.933-8.776-8.779-8.776h-35.115c-4.845 0-8.778 3.932-8.778 8.776v52.663zm17.558-43.885h17.558v35.108h-17.558V468.99z" fill="#fff" stroke="#7700D1" stroke-width="11"/><path fill-rule="evenodd" clip-rule="evenodd" d="M13.511 188.124H205.98v17.553H57.406v-15.933H8.43a8.737 8.737 0 015.08-1.62zm-6.09 46.733H22.29v418.45c0 4.845-3.933 8.777-8.779 8.777-4.845 0-8.778-3.932-8.778-8.777V196.901a8.75 8.75 0 012.689-6.32v44.276zm225.56.828v417.622c0 4.845 3.933 8.777 8.779 8.777 4.845 0 8.778-3.932 8.778-8.777V235.685h-17.557zM19.321 381.399H8.185v152.217H19.32V381.399z" fill="#fff"/><path d="M205.98 188.124h5v-5h-5v5zm0 17.553v5h5v-5h-5zm-148.574 0h-5v5h5v-5zm0-15.933h5v-5h-5v5zm-48.975 0l-2.898-4.075-12.76 9.075H8.431v-5zm13.859 45.113h5v-5h-5v5zm-14.868 0h-5v5h5v-5zm0-44.276h5v-11.76l-8.47 8.159 3.47 3.601zm225.559 45.104v-5h-5v5h5zm17.557 0h5v-5h-5v5zM8.186 381.399v-5h-5v5h5zm11.134 0h5v-5h-5v5zM8.186 533.616h-5v5h5v-5zm11.134 0v5h5v-5h-5zm186.66-350.492H13.511v10H205.98v-10zm5 22.553v-17.553h-10v17.553h10zm-153.574 5H205.98v-10H57.406v10zm-5-20.933v15.933h10v-15.933h-10zm-43.975 5h48.975v-10H8.43v10zm5.08-11.62a13.74 13.74 0 00-7.978 2.545l5.795 8.149a3.74 3.74 0 012.183-.694v-10zm8.779 46.733H7.422v10H22.29v-10zm5 423.45v-418.45h-10v418.45h10zm-13.78 13.777c7.606 0 13.779-6.17 13.779-13.777h-10a3.78 3.78 0 01-3.779 3.777v10zM-.267 653.307c0 7.607 6.172 13.777 13.778 13.777v-10a3.78 3.78 0 01-3.778-3.777h-10zm0-456.406v456.406h10V196.901h-10zm4.22-9.921a13.75 13.75 0 00-4.22 9.921h10c0-1.066.437-2.025 1.158-2.72l-6.938-7.201zm8.469 47.877v-44.276h-10v44.276h10zm225.559 418.45V235.685h-10v417.622h10zm3.779 3.777a3.781 3.781 0 01-3.779-3.777h-10c0 7.607 6.173 13.777 13.779 13.777v-10zm3.778-3.777a3.78 3.78 0 01-3.778 3.777v10c7.606 0 13.778-6.17 13.778-13.777h-10zm0-417.622v417.622h10V235.685h-10zm-12.557 5h17.557v-10h-17.557v10zM8.186 386.399H19.32v-10H8.186v10zm5 147.217V381.399h-10v152.217h10zm6.134-5H8.186v10H19.32v-10zm-5-147.217v152.217h10V381.399h-10z" fill="#7700D1"/><path fill-rule="evenodd" clip-rule="evenodd" d="M325.972 306.348v-7h21.282c20.987 0 38 17.013 38 38v8.763h-7v-8.763c0-17.121-13.879-31-31-31h-21.282zM185.451 201.172v-7h21.393c20.986 0 38 17.013 38 38v8.616h-7v-8.616c0-17.121-13.88-31-31-31h-21.393zm-115.953-.713v-7H48.216c-20.987 0-38 17.013-38 38v9.329h7v-9.329c0-17.121 13.88-31 31-31h21.282z" fill="#fff"/></g><defs><clipPath id="clip0_48_94"><path fill="#fff" d="M0 0h391v657H0z"/></clipPath></defs></svg>