<svg width="447" height="437" fill="none" xmlns="http://www.w3.org/2000/svg"><path d="M321.8 416.6H116a7.353 7.353 0 00-7.35 7.35v14.7A7.353 7.353 0 00116 446a7.353 7.353 0 007.35-7.35v-7.35H321.8a7.352 7.352 0 007.349-7.349 7.353 7.353 0 00-7.349-7.351zM167.45 188.75a7.352 7.352 0 007.349 7.349H204.2a7.353 7.353 0 007.35-7.349v-44.1a7.353 7.353 0 00-7.35-7.35h-29.4a7.353 7.353 0 00-7.35 7.35v44.1h0zm14.7-36.75h14.7v29.4h-14.7V152z" fill="#fff" stroke="#7700D1" stroke-width="10"/><path fill-rule="evenodd" clip-rule="evenodd" d="M13.1 93.2h88.2a7.353 7.353 0 017.349 7.351 7.352 7.352 0 01-7.349 7.349H42.75V95.862H8.67v34.44h11.78V247.55a7.353 7.353 0 01-7.35 7.35 7.353 7.353 0 01-7.35-7.35v-147a7.353 7.353 0 017.35-7.35z" fill="#fff"/><path d="M42.75 107.9h-5v5h5v-5zm0-12.038h5v-5h-5v5zm-34.08 0v-5h-5v5h5zm0 34.44h-5v5h5v-5zm11.78 0h5v-5h-5v5zM101.3 88.2H13.1v10h88.2v-10zm12.349 12.351c0-6.817-5.529-12.35-12.349-12.35v10a2.352 2.352 0 012.349 2.35h10zM101.3 112.9c6.818 0 12.349-5.531 12.349-12.349h-10a2.352 2.352 0 01-2.349 2.349v10zm-58.55 0h58.55v-10H42.75v10zm-5-17.038V107.9h10V95.862h-10zm-29.08 5h34.08v-10H8.67v10zm5 29.44v-34.44h-10v34.44h10zm6.78-5H8.67v10h11.78v-10zm5 122.248V130.302h-10V247.55h10zM13.1 259.9c6.818 0 12.35-5.532 12.35-12.35h-10a2.353 2.353 0 01-2.35 2.35v10zM.75 247.55c0 6.818 5.531 12.35 12.35 12.35v-10a2.352 2.352 0 01-2.35-2.35h-10zm0-147v147h10v-147h-10zM13.1 88.2C6.28 88.2.75 93.732.75 100.55h10a2.353 2.353 0 012.35-2.35v-10z" fill="#7700D1"/><path fill-rule="evenodd" clip-rule="evenodd" d="M60.213 102.94v-4.8H48.58c-20.987 0-38 17.014-38 38v1.16h4.8v-1.16c0-18.335 14.864-33.2 33.2-33.2h11.633z" fill="#fff"/><path d="M358.55 365.15a7.353 7.353 0 007.349 7.35h29.4a7.353 7.353 0 007.35-7.35v-44.1a7.353 7.353 0 00-7.35-7.35h-29.4a7.353 7.353 0 00-7.349 7.35v44.1zm14.7-36.749h14.7V357.8h-14.7v-29.399zM42.5 269.6c-36.332 0-36.75 94.595-36.75 95.55 0 17.75 12.65 32.59 29.4 36.008v37.492A7.353 7.353 0 0042.5 446a7.353 7.353 0 007.349-7.35v-37.492c16.75-3.418 29.4-18.258 29.4-36.008 0-.955-.418-95.55-36.749-95.55zm0 117.6c-12.157 0-22.05-9.893-22.05-22.05 0-36.618 9.835-80.85 22.05-80.85s22.05 44.232 22.05 80.85c0 12.157-9.893 22.05-22.05 22.05zm44.1-161.7H57.2a7.353 7.353 0 00-7.35 7.35v14.7a7.353 7.353 0 007.35 7.35 7.353 7.353 0 007.35-7.35v-7.35h14.7v36.751a7.353 7.353 0 007.35 7.349 7.353 7.353 0 007.349-7.349v-44.1A7.352 7.352 0 0086.6 225.5zm279.299-29.4h29.4a7.353 7.353 0 007.35-7.349V144.65a7.353 7.353 0 00-7.35-7.349h-29.4a7.353 7.353 0 00-7.349 7.349v44.101a7.353 7.353 0 007.349 7.349zm7.351-44.1h14.7v29.4h-14.7V152zM86.6 137.3H57.2a7.353 7.353 0 00-7.35 7.35v44.1a7.353 7.353 0 007.35 7.349h29.4a7.353 7.353 0 007.349-7.349v-44.1a7.351 7.351 0 00-7.349-7.35zm-7.35 44.1h-14.7V152h14.7v29.4h0zm161.7 7.35a7.353 7.353 0 007.35 7.349h29.4a7.353 7.353 0 007.349-7.349v-44.1a7.353 7.353 0 00-7.349-7.35h-29.4a7.353 7.353 0 00-7.35 7.35v44.1zm14.7-36.75h14.7v29.4h-14.7V152z" fill="#fff" stroke="#7700D1" stroke-width="10"/><path fill-rule="evenodd" clip-rule="evenodd" d="M351.2 93.2h88.2c1.815 0 3.477.66 4.759 1.75h-31.687v12.95H351.2a7.353 7.353 0 01-7.35-7.35 7.353 7.353 0 017.35-7.35zm80.85 38.525v271.527c-2.307-.823-4.755-1.352-7.349-1.352-1.272 0-2.536.11-3.778.331-5.072-9.136-14.722-15.031-25.622-15.031s-20.55 5.895-25.622 15.031a21.562 21.562 0 00-3.778-.331c-12.156 0-22.05 9.893-22.05 22.05s9.894 22.05 22.05 22.05H424.7c12.157 0 22.05-9.893 22.05-22.05V131.725h-14.7zM365.9 431.3h58.8c4.05 0 7.35-3.3 7.35-7.35 0-5.461-6.548-9.238-11.333-6.151a7.379 7.379 0 01-6.748.632 7.334 7.334 0 01-4.395-5.153c-1.551-6.696-7.424-11.378-14.274-11.378-6.85 0-12.722 4.682-14.274 11.378a7.33 7.33 0 01-4.395 5.153 7.376 7.376 0 01-6.748-.632c-1.235-.795-2.573-1.199-3.983-1.199-4.05 0-7.35 3.3-7.35 7.35s3.3 7.35 7.35 7.35z" fill="#fff"/><path d="M444.159 94.95v5h13.592L447.4 91.142l-3.241 3.808zm-31.687 0v-5h-5v5h5zm0 12.95v5h5v-5h-5zm19.578 23.825v-5h-5v5h5zm0 271.527l-1.68 4.71 6.68 2.384v-7.094h-5zm-11.127-1.021l-4.372 2.427 1.732 3.12 3.514-.624-.874-4.923zm-51.244 0l-.874 4.923 3.514.624 1.732-3.12-4.372-2.427zm77.071-270.506h5v-5h-5v5zm-14.7 292.225l5 .001v-.001h-5zm-11.333-6.151l2.702 4.207.009-.006-2.711-4.201zm-6.748.632l1.878-4.634-.005-.002-1.873 4.636zm-4.395-5.153l4.873-1.122-.002-.006-4.871 1.128zm-28.548 0l-4.871-1.128-.001.006 4.872 1.122zm-11.143 4.521l-2.704 4.205.002.001 2.702-4.206zM439.4 88.2h-88.2v10h88.2v-10zm8 2.942a12.32 12.32 0 00-8-2.942v10a2.32 2.32 0 011.519.558l6.481-7.615zm-34.928 8.808h31.687v-10h-31.687v10zm5 7.95V94.95h-10v12.95h10zm-66.272 5h61.272v-10H351.2v10zm-12.35-12.35c0 6.818 5.532 12.35 12.35 12.35v-10a2.354 2.354 0 01-2.35-2.35h-10zM351.2 88.2c-6.818 0-12.35 5.532-12.35 12.35h10a2.353 2.353 0 012.35-2.35v-10zm75.85 43.525v271.527h10V131.725h-10zm6.681 266.818c-2.724-.972-5.746-1.643-9.03-1.643v10c1.904 0 3.778.387 5.669 1.062l3.361-9.419zm-9.03-1.643a26.56 26.56 0 00-4.652.408l1.748 9.846a16.566 16.566 0 012.904-.254v-10zm.594 2.904c-5.941-10.701-17.251-17.604-29.994-17.604v10c9.057 0 17.048 4.886 21.25 12.458l8.744-4.854zM395.301 382.2c-12.743 0-24.053 6.903-29.994 17.604l8.744 4.854c4.203-7.572 12.193-12.458 21.25-12.458v-10zm-24.748 15.108a26.55 26.55 0 00-4.652-.408v10c.983 0 1.955.085 2.904.254l1.748-9.846zm-4.652-.408c-14.918 0-27.05 12.132-27.05 27.05h10c0-9.395 7.655-17.05 17.05-17.05v-10zm-27.05 27.05c0 14.918 12.132 27.05 27.05 27.05v-10c-9.395 0-17.05-7.654-17.05-17.05h-10zm27.05 27.05H424.7v-10h-58.799v10zm58.799 0c14.918 0 27.05-12.132 27.05-27.05h-10c0 9.396-7.655 17.05-17.05 17.05v10zm27.05-27.05V131.725h-10V423.95h10zm-5-297.225h-14.7v10h14.7v-10zM424.7 426.3h-58.8v10h58.8v-10zm2.35-2.351a2.362 2.362 0 01-2.35 2.351v10c6.811 0 12.349-5.538 12.35-12.349l-10-.002zM423.428 422c.606-.391 1.44-.45 2.323.04.915.508 1.299 1.283 1.299 1.91h10c0-9.309-10.839-15.647-19.044-10.353l5.422 8.403zm-11.336 1.065a12.378 12.378 0 0011.327-1.059l-5.404-8.415a2.374 2.374 0 01-2.168.206l-3.755 9.268zm-7.39-8.664a12.33 12.33 0 007.395 8.666l3.745-9.272a2.332 2.332 0 01-1.395-1.639l-9.745 2.245zM395.3 406.9c4.511 0 8.374 3.065 9.403 7.507l9.742-2.257c-2.074-8.951-9.956-15.25-19.145-15.25v10zm-9.403 7.507c1.029-4.442 4.892-7.507 9.403-7.507v-10c-9.189 0-17.071 6.299-19.145 15.25l9.742 2.257zm-7.393 8.66a12.332 12.332 0 007.395-8.666l-9.745-2.245a2.333 2.333 0 01-1.396 1.639l3.746 9.272zm-11.323-1.062a12.37 12.37 0 0011.323 1.062l-3.746-9.272a2.372 2.372 0 01-2.172-.203l-5.405 8.413zm-1.281-.405c.405 0 .811.103 1.279.404l5.408-8.411c-2.002-1.287-4.271-1.993-6.687-1.993v10zm-2.35 2.35a2.362 2.362 0 012.35-2.35v-10c-6.812 0-12.35 5.539-12.35 12.35h10zm2.35 2.35a2.361 2.361 0 01-2.35-2.35h-10c0 6.812 5.538 12.35 12.35 12.35v-10z" fill="#7700D1"/><path d="M248.3 107.901h29.4a7.353 7.353 0 007.349-7.35v-44.1a7.353 7.353 0 00-7.349-7.35h-29.4a7.353 7.353 0 00-7.35 7.35v44.1a7.353 7.353 0 007.35 7.35zm7.35-44.1h14.7v29.4h-14.7V63.8zm-14.7 213.149a7.352 7.352 0 007.35 7.349h29.4a7.352 7.352 0 007.349-7.349v-44.1a7.353 7.353 0 00-7.349-7.35h-29.4a7.353 7.353 0 00-7.35 7.35v44.1zm14.7-36.75h14.7v29.4h-14.7v-29.4zM174.8 107.901h29.4a7.353 7.353 0 007.35-7.35v-44.1a7.353 7.353 0 00-7.35-7.35h-29.4a7.352 7.352 0 00-7.349 7.35v44.1a7.351 7.351 0 007.349 7.35zm7.35-44.1h14.7v29.4h-14.7V63.8zm38.881 296.131c-1.323 1.396-2.132 3.307-2.132 5.218 0 1.912.809 3.822 2.132 5.219 1.396 1.323 3.308 2.132 5.219 2.132 1.911 0 3.822-.809 5.219-2.132 1.323-1.396 2.131-3.307 2.131-5.219 0-1.911-.808-3.821-2.131-5.218-2.794-2.72-7.645-2.72-10.438 0zM167.45 276.95a7.351 7.351 0 007.349 7.349H204.2a7.352 7.352 0 007.35-7.349v-44.1a7.353 7.353 0 00-7.35-7.35h-29.4a7.353 7.353 0 00-7.35 7.35v44.1h0zm14.7-36.75h14.7v29.4h-14.7v-29.4z" fill="#fff" stroke="#7700D1" stroke-width="10"/><path d="M152.75 321.05a7.353 7.353 0 007.35 7.35h22.05v66.15a7.353 7.353 0 007.35 7.349 7.352 7.352 0 007.349-7.349V328.4h58.801v66.15a7.353 7.353 0 007.349 7.349 7.353 7.353 0 007.35-7.349V328.4h22.05a7.353 7.353 0 007.35-7.35 7.353 7.353 0 00-7.35-7.35H160.1a7.353 7.353 0 00-7.35 7.35zm205.8-44.1a7.352 7.352 0 007.349 7.349h29.4a7.352 7.352 0 007.35-7.349v-44.1a7.353 7.353 0 00-7.35-7.35h-29.4a7.353 7.353 0 00-7.349 7.35v44.1zm14.7-36.75h14.7v29.4h-14.7v-29.4z" fill="#fff" stroke="#7700D1" stroke-width="10"/><path fill-rule="evenodd" clip-rule="evenodd" d="M321.8 5H130.7a7.335 7.335 0 00-5.686 2.695h42.437v12.004h124.092V7.695h35.944A7.337 7.337 0 00321.8 5zM138.05 43.34h-14.7v351.209a7.353 7.353 0 007.35 7.35 7.353 7.353 0 007.35-7.35V43.339zm176.4 351.209V43.339h14.699v351.21a7.353 7.353 0 01-7.349 7.35 7.353 7.353 0 01-7.35-7.35z" fill="#fff"/><path d="M125.014 7.695l-3.867-3.17-6.697 8.17h10.564v-5zm42.437 0h5v-5h-5v5zm0 12.004h-5v5h5v-5zm124.092 0v5h5v-5h-5zm0-12.004v-5h-5v5h5zm35.944 0v5h10.563l-6.696-8.17-3.867 3.17zM138.05 43.339h5v-5h-5v5zm-14.7 0v-5h-5v5h5zm191.1 0v-5h-5v5h5zm14.699 0h5v-5h-5v5zM130.7 10h191.1V0H130.7v10zm-1.819.865A2.334 2.334 0 01130.7 10V0a12.335 12.335 0 00-9.553 4.525l7.734 6.34zm-3.867 1.83h42.437v-10h-42.437v10zm37.437-5v12.004h10V7.695h-10zm129.092 7.004H167.451v10h124.092v-10zm-5-7.004v12.004h10V7.695h-10zm40.944-5h-35.944v10h35.944v-10zM321.8 10c.728 0 1.38.328 1.82.864l7.734-6.339A12.338 12.338 0 00321.8 0v10zM138.05 38.34h-14.7v10h14.7v-10zm-9.7 356.209V43.339h-10v351.21h10zm2.35 2.35a2.353 2.353 0 01-2.35-2.35h-10c0 6.819 5.532 12.35 12.35 12.35v-10zm2.35-2.35a2.352 2.352 0 01-2.35 2.35v10c6.818 0 12.35-5.531 12.35-12.35h-10zm0-351.21v351.21h10V43.339h-10zm176.4 0v351.21h10V43.339h-10zm19.699-5H314.45v10h14.699v-10zm5 356.21V43.339h-10v351.21h10zm-12.349 12.35c6.818 0 12.349-5.531 12.349-12.35h-10a2.352 2.352 0 01-2.349 2.35v10zm-12.35-12.35c0 6.819 5.531 12.35 12.35 12.35v-10a2.352 2.352 0 01-2.35-2.35h-10z" fill="#7700D1"/><path fill-rule="evenodd" clip-rule="evenodd" d="M392.306 102.94v-4.8h11.633c20.987 0 38 17.014 38 38v1.16h-4.8v-1.16c0-18.335-14.864-33.2-33.2-33.2h-11.633zm-117.65-88.198v-4.8h11.633c20.987 0 38 17.013 38 38v1.16h-4.8v-1.16c0-18.336-14.864-33.2-33.2-33.2h-11.633zm-97.082 0v-4.8h-11.633c-20.987 0-38 17.013-38 38v1.16h4.8v-1.16c0-18.336 14.864-33.2 33.2-33.2h11.633z" fill="#fff"/></svg>