<svg width="537" height="311" fill="none" xmlns="http://www.w3.org/2000/svg"><g clip-path="url(#clip0_2_1325)"><path d="M89.651 123.851h151.762l2.233 2.235v17.385l-2.233 2.235h-6.915v164.491l-2.233 2.235H98.839l-2.233-2.235V145.725h-6.915l-2.233-2.235v-17.384l2.193-2.255zm11.401 184.111h128.941v-8.346H101.052v8.346zm0-12.816h128.941V286.8H101.052v8.346zm0-12.835h128.941v-8.347H101.052v8.347zm0-12.816h128.941v-8.347H101.052v8.347zm0-12.836h128.941v-8.346H101.052v8.346zm0-12.816h128.941v-8.346H101.052v8.346zm0-12.836h128.941v-8.346H101.052v8.346zm0-12.816h128.941v-8.346H101.052v8.346zm0-12.836h128.941v-8.346H101.052v8.346zm0-12.816h128.941v-8.346H101.052v8.346zm0-12.835h128.941v-8.347H101.052v8.347zm0-12.816h128.941v-8.347H101.052v8.347zm0-12.836h128.941v-8.327H101.052v8.327zm-9.168-12.816h147.257v-12.895H91.864v12.895h.02zm164.762-17.385h151.762l2.232 2.235v17.385l-2.232 2.235h-6.916v45.844a2.231 2.231 0 01-2.232 2.235 2.244 2.244 0 01-2.233-2.235v-20.193H268.086v138.84a2.232 2.232 0 01-2.233 2.235 2.244 2.244 0 01-2.233-2.235V145.725h-6.915l-2.233-2.235v-17.384l2.174-2.255zm140.361 43.037v-8.347H268.066v8.347h128.941zm-128.941-12.836h128.941v-8.327H268.066v8.327zm-9.168-12.816h147.257v-12.895H258.878v12.895h.02z" fill="#fff"/><path fill-rule="evenodd" clip-rule="evenodd" d="M267.964 77.373H35.234l-2.233-2.235v-2.24h4.466v.005h228.245v-42.7H93.89v-4.47h174.074l2.233 2.235v47.17l-2.233 2.235z" fill="#fff"/><path fill-rule="evenodd" clip-rule="evenodd" d="M465.197 72.898v2.24l-2.233 2.235h-232.73l-2.232-2.235v-47.17l2.232-2.235h180.689v4.47H232.467v42.7h228.245v-.005h4.485z" fill="#fff"/><path d="M35.06 49.309h97.604a2.232 2.232 0 012.233 2.235 2.232 2.232 0 01-2.233 2.234H37.292v34.058h423.475V53.798h-95.373a2.231 2.231 0 01-2.232-2.235 2.23 2.23 0 012.232-2.235h97.605l2.233 2.235V90.11l-2.233 2.235h-10.867v98.928a2.231 2.231 0 01-2.232 2.235 2.244 2.244 0 01-2.233-2.235V92.345H50.411v215.617H449.92a2.232 2.232 0 012.233 2.235 2.245 2.245 0 01-2.233 2.235H48.179l-2.233-2.235V92.345H35.079l-2.233-2.235V51.544l2.213-2.235z" fill="#fff"/><path fill="#7700D1" d="M32.251 42.129h432.981v30.769H32.251z"/><path fill="#7700D1" d="M120.693 30.135h311.664v29.82H120.693z"/><path fill-rule="evenodd" clip-rule="evenodd" d="M133.194 72.898v.292h-4.35v-.292h4.35zm-36.057-42.76v-4.356a38.647 38.647 0 00-1.943-.049H70.846c-20.987 0-38 17.014-38 38v9.457h4.35v-9.457c0-18.584 15.066-33.65 33.65-33.65h24.348c.652 0 1.3.019 1.943.056zm267.747 42.76v.292h4.35v-.292h-4.35zm36.057-42.76v-4.356a38.673 38.673 0 011.943-.049h24.348c20.987 0 38 17.014 38 38v9.457h-4.35v-9.457c0-18.584-15.066-33.65-33.65-33.65h-24.348c-.652 0-1.3.019-1.943.056zm-47.918 209.064v-38.818h4.681v38.818h-4.681zm12.07 10.228v-4.665h39.61v4.665h-39.61zm51.68-49.046h-4.661v38.818h4.661v-38.818zm-16.826-14.768h-29.954v4.686h29.954v-4.686z" fill="#fff"/><path fill-rule="evenodd" clip-rule="evenodd" d="M370.716 211.942h28.081l2.422-2.356v-18.403c0-1.3-1.086-2.357-2.422-2.357-1.335 0-2.421 1.057-2.421 2.357v16.006h-23.239v-16.006c0-1.3-1.086-2.357-2.421-2.357-1.336 0-2.422 1.057-2.422 2.357v18.403l2.422 2.356z" fill="#fff"/><path fill-rule="evenodd" clip-rule="evenodd" d="M371.702 190.705v-5.031a15.114 15.114 0 00-1.318-.058h-2.676c-8.11 0-14.685 6.575-14.685 14.686v.082h5v-.082c0-5.35 4.336-9.686 9.685-9.686h2.676c.447 0 .887.03 1.318.089zm26.392-.029v-5.021c.358-.026.72-.039 1.085-.039h3.233c8.111 0 14.686 6.575 14.686 14.686v.082h-5v-.082a9.685 9.685 0 00-9.686-9.686h-3.233c-.367 0-.729.02-1.085.06zm-3.486 54.054v4.7h9.536c6.975 0 12.629-5.654 12.629-12.629v-.071h-4.7v.071a7.93 7.93 0 01-7.929 7.929h-9.536zm-19.42 0v4.7h-9.536c-6.975 0-12.629-5.654-12.629-12.629v-.071h4.7v.071a7.93 7.93 0 007.929 7.929h9.536z" fill="#fff"/><path fill-rule="evenodd" clip-rule="evenodd" d="M322.483 302.202v-38.818h4.682v38.818h-4.682zm12.07 10.228v-4.665h39.61v4.665h-39.61zm51.68-49.046h-4.661v38.818h4.661v-38.818zm-16.826-14.768h-29.954v4.686h29.954v-4.686z" fill="#fff"/><path fill-rule="evenodd" clip-rule="evenodd" d="M340.176 274.942h28.082l2.421-2.356v-18.403c0-1.3-1.086-2.357-2.421-2.357-1.336 0-2.422 1.057-2.422 2.357v16.006h-23.239v-16.006c0-1.3-1.086-2.357-2.421-2.357-1.336 0-2.422 1.057-2.422 2.357v18.403l2.422 2.356z" fill="#fff"/><path fill-rule="evenodd" clip-rule="evenodd" d="M341.162 253.705v-5.031a15.114 15.114 0 00-1.318-.058h-2.676c-8.11 0-14.685 6.575-14.685 14.686v.082h5v-.082c0-5.35 4.336-9.686 9.685-9.686h2.676c.447 0 .887.03 1.318.089zm26.392-.03v-5.02c.355-.026.713-.039 1.074-.039h3.26c8.11 0 14.685 6.575 14.685 14.686v.082h-5v-.082c0-5.35-4.336-9.686-9.685-9.686h-3.26c-.363 0-.721.02-1.074.059zm-3.486 54.055v4.7h9.536c6.975 0 12.629-5.654 12.629-12.629v-.071h-4.7v.071a7.93 7.93 0 01-7.929 7.929h-9.536zm-19.42 0v4.7h-9.536c-6.975 0-12.629-5.654-12.629-12.629v-.071h4.7v.071a7.93 7.93 0 007.929 7.929h9.536zm67.824-68.528v-38.818h4.682v38.818h-4.682zm12.071 10.228v-4.665h39.609v4.665h-39.609zm51.68-49.046h-4.662v38.818h4.662v-38.818zm-16.827-14.768h-29.953v4.686h29.953v-4.686z" fill="#fff"/><path fill-rule="evenodd" clip-rule="evenodd" d="M430.165 211.942h28.082l2.421-2.356v-18.403c0-1.3-1.085-2.357-2.421-2.357-1.336 0-2.421 1.057-2.421 2.357v16.006h-23.24v-16.006c0-1.3-1.085-2.357-2.421-2.357-1.336 0-2.421 1.057-2.421 2.357v18.403l2.421 2.356z" fill="#fff"/><path fill-rule="evenodd" clip-rule="evenodd" d="M431.151 190.674v-5.02a14.95 14.95 0 00-1.063-.038h-3.286c-8.11 0-14.685 6.575-14.685 14.686v.082h5v-.082c0-5.35 4.336-9.686 9.685-9.686h3.286c.359 0 .714.02 1.063.058zm26.393.031v-5.031c.434-.038.873-.058 1.317-.058h2.676c8.111 0 14.686 6.575 14.686 14.686l-.001.082h-5l.001-.082c0-5.35-4.337-9.686-9.686-9.686h-2.676c-.447 0-.887.03-1.317.089zm-3.487 54.025v4.7h9.536c6.975 0 12.63-5.654 12.63-12.629l-.001-.071h-4.7l.001.071a7.93 7.93 0 01-7.93 7.929h-9.536zm-19.42 0v4.7h-9.535c-6.976 0-12.63-5.654-12.63-12.629v-.071h4.7v.071a7.93 7.93 0 007.93 7.929h9.535z" fill="#fff"/><path fill="#7700D1" d="M437.972 190.236h16.858v16.955h-16.858zm0 21.706h22.696v32.653h-22.696z"/><path fill-rule="evenodd" clip-rule="evenodd" d="M381.932 302.202v-38.818h4.682v38.818h-4.682zm12.071 10.228v-4.665h39.609v4.665h-39.609zm51.68-49.046h-4.662v38.818h4.662v-38.818zm-16.827-14.768h-29.953v4.686h29.953v-4.686z" fill="#fff"/><path fill-rule="evenodd" clip-rule="evenodd" d="M399.625 274.942h28.082l2.421-2.356v-18.403c0-1.3-1.085-2.357-2.421-2.357-1.336 0-2.421 1.057-2.421 2.357v16.006h-23.24v-16.006c0-1.3-1.085-2.357-2.421-2.357-1.336 0-2.421 1.057-2.421 2.357v18.403l2.421 2.356z" fill="#fff"/><path fill-rule="evenodd" clip-rule="evenodd" d="M400.611 253.705v-5.031a15.091 15.091 0 00-1.317-.058h-2.978c-8.11 0-14.685 6.575-14.685 14.686v.082h5v-.082c0-5.35 4.336-9.686 9.685-9.686h2.978a9.7 9.7 0 011.317.089zm26.393 0v-5.031c.434-.038.873-.058 1.317-.058h3.013c8.11 0 14.685 6.575 14.685 14.686v.082h-5v-.082c0-5.35-4.336-9.686-9.685-9.686h-3.013c-.447 0-.887.03-1.317.089zm-3.487 54.025v4.7h9.536c6.975 0 12.63-5.654 12.63-12.629v-.071h-4.701l.001.071a7.93 7.93 0 01-7.93 7.929h-9.536zm-19.42 0v4.7h-9.535c-6.976 0-12.63-5.654-12.63-12.629v-.071h4.7v.071a7.93 7.93 0 007.93 7.929h9.535z" fill="#fff"/><path fill-rule="evenodd" clip-rule="evenodd" d="M441.943 302.202v-38.818h4.682v38.818h-4.682zm12.071 10.228v-4.665h39.609v4.665h-39.609zm51.68-49.046h-4.662v38.818h4.662v-38.818zm-16.827-14.768h-29.953v4.686h29.953v-4.686z" fill="#fff"/><path fill-rule="evenodd" clip-rule="evenodd" d="M459.636 274.942h28.082l2.421-2.356v-18.403c0-1.3-1.085-2.357-2.421-2.357-1.336 0-2.421 1.057-2.421 2.357v16.006h-23.24v-16.006c0-1.3-1.085-2.357-2.421-2.357-1.336 0-2.421 1.057-2.421 2.357v18.403l2.421 2.356z" fill="#fff"/><path fill-rule="evenodd" clip-rule="evenodd" d="M460.622 253.705v-5.031a15.091 15.091 0 00-1.317-.058h-2.974c-8.11 0-14.685 6.575-14.685 14.686v.082h5v-.082c0-5.35 4.336-9.686 9.685-9.686h2.974a9.7 9.7 0 011.317.089zm26.392 0v-5.031c.434-.038.874-.058 1.318-.058h2.676c8.111 0 14.686 6.575 14.686 14.686l-.001.082h-5l.001-.082c0-5.35-4.337-9.686-9.686-9.686h-2.676c-.447 0-.887.03-1.318.089zm-3.486 54.025v4.7h9.536c6.975 0 12.63-5.654 12.63-12.629l-.001-.071h-4.7l.001.071a7.93 7.93 0 01-7.93 7.929h-9.536zm-19.42 0v4.7h-9.536c-6.975 0-12.629-5.654-12.629-12.629v-.071h4.7v.071a7.93 7.93 0 007.929 7.929h9.536z" fill="#fff"/></g><defs><clipPath id="clip0_2_1325"><path fill="#fff" transform="matrix(-1 0 0 1 537 0)" d="M0 0h537v311H0z"/></clipPath></defs></svg>