<svg width="545" height="285" viewBox="0 0 545 285" fill="none" xmlns="http://www.w3.org/2000/svg">
<path d="M139.842 259.583C140.779 259.583 141.66 259.197 142.266 258.425L195.092 195.516C196.249 194.138 196.029 192.153 194.706 190.995C193.329 189.837 191.346 190.058 190.19 191.381L137.419 254.29C136.262 255.668 136.482 257.653 137.804 258.811C138.41 259.307 139.126 259.583 139.842 259.583Z" fill="white"/>
<path d="M139.181 240.892C140.063 240.892 140.999 240.506 141.605 239.734L164.796 212.387C165.952 211.064 165.787 209.024 164.41 207.866C163.088 206.708 161.05 206.874 159.893 208.252L136.703 235.599C135.546 236.922 135.711 238.962 137.088 240.12C137.694 240.616 138.465 240.892 139.181 240.892Z" fill="white"/>
<path d="M192.723 266.861C193.605 266.861 194.541 266.475 195.147 265.703L218.338 238.356C219.494 237.033 219.329 234.993 217.952 233.835C216.63 232.677 214.592 232.842 213.435 234.221L190.245 261.568C189.088 262.891 189.253 264.931 190.63 266.089C191.236 266.585 191.952 266.861 192.723 266.861Z" fill="white"/>
<path d="M247.588 266.861C248.524 266.861 249.405 266.475 250.011 265.703L302.837 202.794C303.994 201.415 303.774 199.431 302.451 198.273C301.074 197.115 299.091 197.28 297.935 198.659L245.109 261.568C243.952 262.946 244.172 264.931 245.494 266.089C246.1 266.585 246.871 266.861 247.588 266.861Z" fill="white"/>
<path d="M267.142 224.572C268.024 224.572 268.96 224.186 269.566 223.469L299.587 188.238C300.744 186.915 300.579 184.875 299.257 183.717C297.934 182.559 295.896 182.724 294.74 184.048L264.719 219.279C263.562 220.602 263.727 222.642 265.049 223.8C265.655 224.351 266.426 224.572 267.142 224.572Z" fill="white"/>
<path d="M323.549 245.689C324.43 245.689 325.367 245.303 325.973 244.586L355.993 209.355C357.15 208.031 356.985 205.991 355.663 204.834C354.341 203.676 352.303 203.841 351.146 205.164L321.125 240.396C319.968 241.719 320.134 243.759 321.456 244.917C322.117 245.468 322.833 245.689 323.549 245.689Z" fill="white"/>
<path d="M78.3133 285H415.65L418.845 281.802V40.3109L415.65 37.113H356.875C355.112 37.113 353.68 38.5465 353.68 40.3109C353.68 42.0752 355.112 43.5087 356.875 43.5087H412.455V278.549H81.5633V43.5087H137.088C138.851 43.5087 140.283 42.0752 140.283 40.3109C140.283 38.5465 138.851 37.113 137.088 37.113H78.3133L75.1184 40.3109V281.802L78.3133 285Z" fill="white"/>
<path d="M138.245 77.5821H355.718L358.913 74.3843V3.26009L355.718 0.0622559H138.245L135.05 3.26009V74.3843L138.245 77.5821ZM352.523 71.1864H141.44V6.45792H352.523V71.1864Z" fill="white"/>
<path d="M138.245 283.511C140.008 283.511 141.44 282.078 141.44 280.313V155.267H352.523V280.313C352.523 282.078 353.955 283.511 355.718 283.511C357.481 283.511 358.913 282.078 358.913 280.313V152.014L355.718 148.816H138.245L135.05 152.014V280.258C135.05 282.078 136.482 283.511 138.245 283.511Z" fill="white"/>
<path d="M246.981 283.511C248.744 283.511 250.176 282.078 250.176 280.313V152.014C250.176 150.25 248.744 148.816 246.981 148.816C245.219 148.816 243.787 150.25 243.787 152.014V280.258C243.787 282.078 245.219 283.511 246.981 283.511Z" fill="white"/>
<path d="M138.245 184.599H355.718C357.481 184.599 358.913 183.166 358.913 181.401C358.913 179.637 357.481 178.204 355.718 178.204H138.245C136.482 178.204 135.05 179.637 135.05 181.401C135.05 183.166 136.482 184.599 138.245 184.599Z" fill="white"/>
<path d="M301.35 283.512C303.113 283.512 304.545 282.078 304.545 280.314V181.401C304.545 179.637 303.113 178.204 301.35 178.204C299.587 178.204 298.155 179.637 298.155 181.401V280.314C298.155 282.078 299.587 283.512 301.35 283.512Z" fill="white"/>
<path d="M192.613 283.512C194.376 283.512 195.808 282.078 195.808 280.314V181.401C195.808 179.637 194.376 178.204 192.613 178.204C190.851 178.204 189.418 179.637 189.418 181.401V280.314C189.418 282.078 190.851 283.512 192.613 283.512Z" fill="white"/>
<path d="M78.3684 115.074H415.65V121.47H78.3684V115.074Z" fill="white"/>
<path d="M78.3132 105.48H203.906C205.668 105.48 207.1 104.047 207.1 102.283C207.1 100.518 205.668 99.0847 203.906 99.0847H78.3132C76.5505 99.0847 75.1183 100.518 75.1183 102.283C75.1183 104.047 76.5505 105.48 78.3132 105.48Z" fill="white"/>
<path d="M501.747 209.189C525.873 209.189 544.106 187.191 544.106 158.024C544.161 107.52 505.933 57.954 504.28 55.8589H499.213C497.56 57.954 459.387 107.465 459.387 158.024C459.387 187.191 477.62 209.189 501.747 209.189ZM501.747 63.247C510.34 75.3215 537.717 117.059 537.717 158.024C537.717 183.552 522.238 202.794 501.747 202.794C481.255 202.794 465.776 183.552 465.776 158.024C465.776 117.059 493.208 75.3215 501.747 63.247Z" fill="white"/>
<path d="M501.747 284.504C503.509 284.504 504.941 283.07 504.941 281.306V141.098C504.941 139.333 503.509 137.9 501.747 137.9C499.984 137.9 498.552 139.333 498.552 141.098V281.306C498.552 283.07 499.984 284.504 501.747 284.504Z" fill="white"/>
<path d="M26.1992 285C27.962 285 29.3942 283.566 29.3942 281.802V214.041C29.3942 212.277 27.962 210.843 26.1992 210.843C24.4365 210.843 23.0043 212.277 23.0043 214.041V281.802C23.0043 283.566 24.4365 285 26.1992 285Z" fill="white"/>
<path d="M3.55957 217.018H48.7287L52.1439 213.6V189.561L48.7287 186.143H3.55957L0.144377 189.561V213.6L3.55957 217.018ZM45.3686 210.182H6.97481V192.924H45.3686V210.182Z" fill="white"/>
</svg>
